<?xml version="1.0" encoding="utf-8"?>
<!-- Generator: Adobe Illustrator 16.0.0, SVG Export Plug-In . SVG Version: 6.00 Build 0)  -->
<!DOCTYPE svg PUBLIC "-//W3C//DTD SVG 1.1//EN" "http://www.w3.org/Graphics/SVG/1.1/DTD/svg11.dtd">
<svg version="1.1" id="Layer_1" xmlns="http://www.w3.org/2000/svg" xmlns:xlink="http://www.w3.org/1999/xlink" x="0px" y="0px"
	 width="64px" height="64px" viewBox="-7 0 64 64" enable-background="new -7 0 64 64" xml:space="preserve">
<text transform="matrix(1 0 0 1 17.9722 58.709)" font-family="'Helvetica'" font-size="11">Art</text>
<g id="_x36_4px-Line">
	<path id="Shape" d="M17.737,7.31c-1.602,0-2.905,1.629-2.905,3.631s1.304,3.631,2.905,3.631s2.905-1.629,2.905-3.631
		S19.339,7.31,17.737,7.31L17.737,7.31z M17.737,13.119c-0.787,0-1.453-0.998-1.453-2.178s0.666-2.179,1.453-2.179
		s1.452,0.998,1.452,2.179S18.524,13.119,17.737,13.119L17.737,13.119z"/>
	<path id="Shape_1_" d="M12.654,24.738c-2.002,0-3.631,1.629-3.631,3.631S10.652,32,12.654,32s3.631-1.629,3.631-3.631
		S14.656,24.738,12.654,24.738L12.654,24.738z M12.654,30.547c-1.201,0-2.178-0.978-2.178-2.179c0-1.201,0.978-2.179,2.178-2.179
		c1.201,0,2.179,0.978,2.179,2.179C14.833,29.569,13.855,30.547,12.654,30.547L12.654,30.547z"/>
	<path id="Shape_2_" d="M27.838,5.981c-1.412-0.512-3.134,0.612-3.917,2.56c-0.46,1.139-0.496,2.352-0.098,3.246
		c0.263,0.59,0.693,1.008,1.243,1.208c0.229,0.083,0.469,0.123,0.71,0.123c1.237,0,2.55-1.054,3.204-2.685
		c0.461-1.139,0.498-2.351,0.1-3.244C28.816,6.599,28.389,6.182,27.838,5.981L27.838,5.981z M27.635,9.892L27.635,9.892
		c-0.5,1.244-1.504,1.944-2.072,1.739c-0.174-0.062-0.312-0.209-0.413-0.435c-0.238-0.533-0.193-1.342,0.118-2.112
		c0.441-1.099,1.279-1.773,1.859-1.773c0.076,0,0.146,0.012,0.213,0.035c0.174,0.063,0.312,0.21,0.412,0.435
		C27.992,8.313,27.945,9.123,27.635,9.892L27.635,9.892z"/>
	<path id="Shape_3_" d="M30.883,24.332c-0.176,0.719-0.037,1.473,0.404,2.182c0.703,1.132,2.113,2.029,3.775,2.399
		c0.559,0.124,1.107,0.183,1.631,0.183c2.111,0,3.832-0.96,4.207-2.5c0.178-0.719,0.037-1.474-0.402-2.181
		c-0.703-1.133-2.117-2.031-3.779-2.401C33.918,21.392,31.352,22.408,30.883,24.332L30.883,24.332z M39.266,25.18
		c0.23,0.375,0.309,0.735,0.227,1.071l0,0c-0.268,1.091-2.186,1.674-4.111,1.245c-1.271-0.283-2.365-0.952-2.861-1.748
		c-0.23-0.375-0.309-0.735-0.227-1.07c0.207-0.847,1.408-1.387,2.836-1.387c0.412,0,0.844,0.044,1.275,0.142
		C37.674,23.714,38.77,24.385,39.266,25.18L39.266,25.18z"/>
	<path id="Shape_4_" d="M36.354,11.885c-1.172-0.288-2.727,0.074-4.162,0.971c-2.268,1.418-3.391,3.652-2.553,5.085
		c0.293,0.502,0.787,0.854,1.434,1.012c0.266,0.065,0.549,0.097,0.848,0.097c1.02,0,2.203-0.375,3.312-1.068
		c2.27-1.418,3.391-3.652,2.557-5.085C37.494,12.394,36.998,12.044,36.354,11.885L36.354,11.885z M34.465,16.75
		c-1.076,0.672-2.273,0.984-3.045,0.793c-0.256-0.063-0.436-0.176-0.527-0.334c-0.367-0.632,0.439-2.102,2.07-3.121
		c0.865-0.541,1.809-0.848,2.547-0.848c0.18,0,0.348,0.018,0.498,0.055c0.258,0.063,0.436,0.176,0.527,0.334
		C36.9,14.262,36.096,15.731,34.465,16.75L34.465,16.75z"/>
	<path id="Shape_5_" d="M22.82,1.5C11.962,1.5,4.666,9.38,4.666,21.107c0,10.303,3.896,16.702,10.167,16.702
		c4.435,0,4.547-4.367,4.637-7.877c0.103-4.024,0.396-5.918,2.626-5.918c2.54,0,3.812,1.743,5.424,3.95
		c2.021,2.77,4.541,6.217,10.551,6.217c2.713,0,7.264-1.228,7.264-9.44C45.332,11.49,35.654,1.5,22.82,1.5L22.82,1.5z M38.07,32.727
		c-5.273,0-7.361-2.858-9.379-5.622c-1.633-2.235-3.319-4.546-6.597-4.546c-3.89,0-3.99,3.896-4.078,7.334
		c-0.104,4.021-0.369,6.462-3.185,6.462c-6.425,0-8.714-7.876-8.714-15.25c0-11.029,6.556-18.155,16.702-18.155
		c12.006,0,21.061,9.366,21.061,21.786C43.881,30.038,41.926,32.727,38.07,32.727L38.07,32.727z"/>
</g>
</svg>
