<?xml version="1.0" encoding="utf-8"?>
<!-- Generator: Adobe Illustrator 16.0.0, SVG Export Plug-In . SVG Version: 6.00 Build 0)  -->
<!DOCTYPE svg PUBLIC "-//W3C//DTD SVG 1.1//EN" "http://www.w3.org/Graphics/SVG/1.1/DTD/svg11.dtd">
<svg version="1.1" id="Layer_1" xmlns="http://www.w3.org/2000/svg" xmlns:xlink="http://www.w3.org/1999/xlink" x="0px" y="0px"
	 width="64px" height="64px" viewBox="0 0 64 64" enable-background="new 0 0 64 64" xml:space="preserve">
<text transform="matrix(1 0 0 1 5.7056 58.709)" font-family="'Helvetica'" font-size="11">Badminton</text>
<g id="_x36_4px-Line_1_">
	<path id="Shape_9_" d="M50.297,3.291c-2.793-2.389-7.112-2.187-9.836,0.464l-2.086,2.032c-0.45,0.437-0.696,1.02-0.696,1.641
		c0,0.252,0.051,0.495,0.131,0.729c-3.312,1.363-16.787,6.735-26.053,10.417c-0.237,0.095-0.412,0.3-0.467,0.549
		c-0.054,0.249,0.019,0.51,0.194,0.693c0.838,0.88,2.221,0.999,3.559,1.113c1.061,0.09,2.159,0.184,2.591,0.651
		c0.412,0.445,0.379,1.279,0.345,2.161c-0.044,1.117-0.093,2.385,0.783,3.3c0.86,0.897,2.262,0.984,3.618,1.069
		c1.04,0.064,2.115,0.131,2.544,0.57c0.451,0.463,0.542,1.527,0.632,2.557c0.112,1.288,0.227,2.618,1.054,3.446
		c0.826,0.829,2.179,0.918,3.489,1.004c1.081,0.072,2.199,0.146,2.66,0.625c0.464,0.479,0.56,1.629,0.652,2.741
		c0.118,1.401,0.241,2.854,1.091,3.784c0.147,0.161,0.354,0.251,0.567,0.251c0.047,0,0.096-0.005,0.143-0.015
		c0.261-0.049,0.479-0.229,0.573-0.478l10.241-26.44c0.234,0.074,0.478,0.121,0.72,0.121c0.6,0,1.198-0.222,1.654-0.667l2.241-2.181
		c1.385-1.35,2.146-3.219,2.083-5.131C52.664,6.355,51.801,4.578,50.297,3.291L50.297,3.291z M35.073,40.188
		c-0.058-0.402-0.095-0.836-0.131-1.265c-0.116-1.379-0.235-2.807-1.078-3.68c-0.873-0.905-2.292-0.998-3.665-1.089
		c-1.025-0.068-2.085-0.139-2.5-0.557c-0.434-0.435-0.524-1.48-0.612-2.495c-0.113-1.298-0.229-2.64-1.061-3.496
		c-0.843-0.866-2.219-0.95-3.551-1.033c-1.061-0.066-2.159-0.135-2.604-0.599c-0.426-0.443-0.393-1.286-0.358-2.177
		c0.043-1.104,0.092-2.353-0.752-3.264c-0.836-0.903-2.235-1.023-3.587-1.138c-0.359-0.031-0.723-0.061-1.064-0.108
		c2.441-0.971,7.046-2.803,11.651-4.64c3.36-1.341,6.719-2.685,9.238-3.698c1.937-0.779,3.063-1.233,3.729-1.54l6.001,5.845
		L35.073,40.188L35.073,40.188z M49.571,12.329l-2.239,2.18c-0.322,0.313-0.847,0.313-1.168,0v-0.001
		c-0.002-0.001-0.002-0.001-0.002-0.002l-6.716-6.539c-0.148-0.145-0.231-0.337-0.231-0.541c0-0.202,0.083-0.394,0.232-0.54
		l2.086-2.031c1.155-1.127,2.672-1.699,4.17-1.699c1.295,0,2.577,0.429,3.598,1.302c1.172,1.002,1.844,2.383,1.893,3.888
		C51.24,9.85,50.664,11.264,49.571,12.329L49.571,12.329z"/>
	<path id="Shape_8_" d="M39.46,14.523c-0.297-0.304-0.781-0.31-1.086-0.014l-10.077,9.812c-0.303,0.297-0.31,0.783-0.014,1.086
		c0.15,0.156,0.35,0.232,0.549,0.232c0.193,0,0.386-0.072,0.536-0.216l10.077-9.813C39.75,15.314,39.756,14.828,39.46,14.523
		L39.46,14.523z"/>
	<path id="Shape_7_" d="M37.36,12.542c-0.186-0.381-0.645-0.541-1.026-0.354L22.898,18.73c-0.382,0.187-0.54,0.645-0.354,1.026
		c0.133,0.272,0.406,0.431,0.69,0.431c0.112,0,0.228-0.025,0.336-0.077l13.435-6.542C37.388,13.384,37.546,12.924,37.36,12.542
		L37.36,12.542z"/>
	<path id="Shape_6_" d="M41.5,16.557c-0.375-0.193-0.84-0.044-1.033,0.333l-6.718,13.084c-0.192,0.377-0.046,0.84,0.333,1.034
		c0.112,0.058,0.231,0.084,0.351,0.084c0.277,0,0.547-0.151,0.686-0.416l6.718-13.085C42.026,17.213,41.877,16.751,41.5,16.557
		L41.5,16.557z"/>
</g>
</svg>
