<?xml version="1.0" encoding="utf-8"?>
<!-- Generator: Adobe Illustrator 16.0.0, SVG Export Plug-In . SVG Version: 6.00 Build 0)  -->
<!DOCTYPE svg PUBLIC "-//W3C//DTD SVG 1.1//EN" "http://www.w3.org/Graphics/SVG/1.1/DTD/svg11.dtd">
<svg version="1.1" id="Layer_1" xmlns="http://www.w3.org/2000/svg" xmlns:xlink="http://www.w3.org/1999/xlink" x="0px" y="0px"
	 width="64px" height="64px" viewBox="0 0 64 64" enable-background="new 0 0 64 64" xml:space="preserve">
<text transform="matrix(1 0 0 1 10.9028 58.709)" font-family="'Helvetica'" font-size="11">Baseball</text>
<g id="_x36_4px-Line">
	<path id="Shape" d="M32.642,4.068c-1.954,0-3.215,1.515-3.215,3.859c0,2.344,1.262,3.859,3.215,3.859
		c1.955,0,3.217-1.515,3.217-3.859C35.858,5.583,34.597,4.068,32.642,4.068L32.642,4.068z M32.642,10.5
		c-1.741,0-1.929-1.799-1.929-2.573c0-0.774,0.188-2.573,1.929-2.573c1.742,0,1.93,1.799,1.93,2.573
		C34.571,8.701,34.384,10.5,32.642,10.5L32.642,10.5z"/>
	<path id="Shape_1_" d="M36.763,5.049c0.048,0,0.096-0.005,0.144-0.016l4.426-1.007c0.333-0.088,0.611-0.3,0.784-0.597
		c0.174-0.297,0.22-0.644,0.132-0.977c-0.184-0.684-0.887-1.093-1.598-0.906L36.031,2.97c-0.194,0.061-0.349,0.207-0.415,0.397
		c-0.068,0.19-0.043,0.402,0.066,0.571l0.542,0.822C36.347,4.943,36.55,5.049,36.763,5.049L36.763,5.049z"/>
	<path id="Shape_2_" d="M42.29,41.051c0-0.146-0.019-0.289-0.073-0.476L37.569,27.64c-0.313-0.843-0.421-1.438-0.421-2.36
		l-0.004-8.349c0-2.128-1.73-3.859-3.858-3.859h-7.719V7.49l2.215-0.442c0.301-0.06,0.517-0.324,0.517-0.63V6.229
		c0-0.2-0.093-0.389-0.252-0.51c-0.159-0.122-0.366-0.163-0.559-0.11l-2.134,0.574c-0.276-0.49-0.795-0.826-1.396-0.826
		c-0.868,0-1.482,0.584-1.605,1.552l-0.645,7.451c0,1.419,1.154,2.573,2.573,2.573h3.859v8.335c0,1.026-0.129,1.56-0.42,2.368
		l-4.633,12.88c-0.062,0.172-0.093,0.353-0.093,0.536c0,0.886,0.722,1.608,1.608,1.608c0.704,0,1.338-0.473,1.522-1.096
		l5.374-13.512c0.002-0.009,0.264-0.83,1.143-0.83c0.846,0,1.117,0.751,1.161,0.88l5.369,13.5c0.23,0.631,0.838,1.057,1.51,1.057
		C41.568,42.659,42.29,41.938,42.29,41.051L42.29,41.051z M40.373,41.146l-5.358-13.467c-0.183-0.603-0.914-1.743-2.373-1.743
		c-1.458,0-2.189,1.14-2.355,1.692l-5.375,13.515c-0.041,0.135-0.167,0.229-0.308,0.229c-0.178,0-0.322-0.146-0.322-0.322
		c0-0.036,0.006-0.071,0.017-0.104l4.632-12.877c0.329-0.914,0.496-1.598,0.496-2.803v-8.978c0-0.355-0.289-0.643-0.643-0.643
		h-4.502c-0.709,0-1.287-0.577-1.289-1.231l0.641-7.371c0.051-0.403,0.21-0.403,0.327-0.403c0.178,0,0.322,0.145,0.322,0.322v6.753
		c0,0.355,0.288,0.643,0.643,0.643h8.362c1.419,0,2.572,1.154,2.572,2.573l0.004,8.349c0,1.082,0.132,1.816,0.5,2.803l4.631,12.88
		c0.008,0.027,0.012,0.058,0.012,0.088c0,0.179-0.145,0.322-0.322,0.322C40.525,41.373,40.418,41.268,40.373,41.146L40.373,41.146z"
		/>
</g>
</svg>
