<?xml version="1.0" encoding="utf-8"?>
<!-- Generator: Adobe Illustrator 16.0.0, SVG Export Plug-In . SVG Version: 6.00 Build 0)  -->
<!DOCTYPE svg PUBLIC "-//W3C//DTD SVG 1.1//EN" "http://www.w3.org/Graphics/SVG/1.1/DTD/svg11.dtd">
<svg version="1.1" id="Layer_1" xmlns="http://www.w3.org/2000/svg" xmlns:xlink="http://www.w3.org/1999/xlink" x="0px" y="0px"
	 width="64px" height="64px" viewBox="0 0 64 64" enable-background="new 0 0 64 64" xml:space="preserve">
<text transform="matrix(1 0 0 1 6.624 58.709)" font-family="'Helvetica'" font-size="11">Basketball</text>
<g id="_x36_4px-Line">
	<path id="Shape" d="M21.424,25.296c-2.187,0-3.966,1.779-3.966,3.967c0,2.187,1.779,3.965,3.966,3.965
		c2.188,0,3.966-1.779,3.966-3.965C25.39,27.075,23.611,25.296,21.424,25.296L21.424,25.296z M21.424,31.906
		c-1.458,0-2.644-1.188-2.644-2.643c0-1.459,1.186-2.645,2.644-2.645s2.644,1.185,2.644,2.645
		C24.068,30.721,22.882,31.906,21.424,31.906L21.424,31.906z"/>
	<path id="Shape_1_" d="M37.288,5.467c0-2.41-1.298-3.967-3.306-3.967c-2.007,0-3.307,1.557-3.307,3.967
		c0,2.409,1.298,3.965,3.307,3.965C35.99,9.432,37.288,7.876,37.288,5.467L37.288,5.467z M32,5.467c0-0.796,0.192-2.645,1.982-2.645
		c1.789,0,1.981,1.848,1.981,2.645c0,0.795-0.192,2.643-1.981,2.643C32.192,8.11,32,6.262,32,5.467L32,5.467z"/>
	<path id="Shape_2_" d="M46.542,12.077V4.475c0-0.912-0.741-1.653-1.653-1.653c-0.869,0-1.529,0.632-1.646,1.59l-0.604,6.342h-8.654
		c-3.021,0-6.273,0.302-6.604,3.872l-0.588,4.112l-6.44,0.613c-0.94,0.116-1.572,0.777-1.572,1.648c0,0.911,0.741,1.652,1.652,1.652
		h7.602c0.481,0,0.933-0.128,1.322-0.354v18.202c0,1.463,0.853,1.983,1.653,1.983c0.799,0,1.651-0.521,1.651-1.95l0.662-13.253
		c0-0.363,0.296-0.66,0.659-0.66c0.365,0,0.662,0.297,0.662,0.694l0.66,13.187c0,1.463,0.854,1.982,1.652,1.982
		s1.65-0.521,1.65-1.982V14.72h5.287C45.355,14.72,46.542,13.534,46.542,12.077L46.542,12.077z M37.949,13.399
		c-0.365,0-0.661,0.296-0.661,0.66v26.44c0,0.661-0.216,0.661-0.33,0.661c-0.115,0-0.331,0-0.332-0.693l-0.66-13.188
		c0-1.093-0.89-1.982-1.983-1.982c-1.092,0-1.98,0.889-1.98,1.95L31.34,40.499c0,0.661-0.215,0.661-0.33,0.661
		c-0.116,0-0.331,0-0.331-0.661V16.704c0-0.364-0.295-0.662-0.66-0.662c-0.366,0-0.662,0.297-0.662,0.662v3.305
		c0,0.729-0.593,1.322-1.322,1.322h-7.602c-0.182,0-0.331-0.149-0.331-0.331c0-0.235,0.223-0.312,0.394-0.333l6.941-0.66
		c0.303-0.03,0.548-0.263,0.592-0.565l0.665-4.661c0.186-2.021,1.521-2.704,5.291-2.704h9.254c0.343,0,0.625-0.26,0.656-0.599
		l0.66-6.922c0.021-0.188,0.103-0.412,0.336-0.412c0.183,0,0.33,0.148,0.33,0.331v7.602c0,0.729-0.593,1.322-1.322,1.322H37.949
		L37.949,13.399z"/>
</g>
</svg>
