<?xml version="1.0" encoding="utf-8"?>
<!-- Generator: Adobe Illustrator 16.0.0, SVG Export Plug-In . SVG Version: 6.00 Build 0)  -->
<!DOCTYPE svg PUBLIC "-//W3C//DTD SVG 1.1//EN" "http://www.w3.org/Graphics/SVG/1.1/DTD/svg11.dtd">
<svg version="1.1" id="Layer_1" xmlns="http://www.w3.org/2000/svg" xmlns:xlink="http://www.w3.org/1999/xlink" x="0px" y="0px"
	 width="64px" height="64px" viewBox="0 0 64 64" enable-background="new 0 0 64 64" xml:space="preserve">
<text transform="matrix(1 0 0 1 12.7446 58.709)" font-family="'Helvetica'" font-size="11">Billiards</text>
<g id="_x36_4px-Line">
	<path id="Shape" d="M32,1.501c-11.351,0-20.584,9.233-20.584,20.583c0,11.35,9.233,20.583,20.584,20.583
		s20.583-9.233,20.583-20.583C52.584,10.734,43.352,1.501,32,1.501L32,1.501z M32,41.145c-10.51,0-19.059-8.551-19.059-19.06
		S21.491,3.026,32,3.026c10.509,0,19.06,8.549,19.06,19.059S42.51,41.145,32,41.145L32,41.145z"/>
	<path id="Shape_1_" d="M32,12.175c-5.465,0-9.911,4.446-9.911,9.91c0,5.465,4.446,9.911,9.911,9.911c5.464,0,9.91-4.446,9.91-9.911
		C41.91,16.621,37.465,12.175,32,12.175L32,12.175z M32,30.471c-4.624,0-8.386-3.762-8.386-8.386s3.762-8.386,8.386-8.386
		c4.623,0,8.386,3.762,8.386,8.386S36.623,30.471,32,30.471L32,30.471z"/>
	<path id="Shape_2_" d="M35.812,19.798c0-1.682-1.71-3.05-3.812-3.05s-3.812,1.368-3.812,3.05c0,0.915,0.517,1.728,1.317,2.287
		c-0.8,0.56-1.317,1.373-1.317,2.287c0,1.682,1.71,3.05,3.812,3.05s3.812-1.368,3.812-3.05c0-0.915-0.517-1.728-1.317-2.287
		C35.295,21.526,35.812,20.713,35.812,19.798L35.812,19.798z M34.287,24.372c0,0.827-1.047,1.525-2.287,1.525
		s-2.288-0.698-2.288-1.525c0-0.826,1.047-1.524,2.288-1.524C33.24,22.848,34.287,23.546,34.287,24.372L34.287,24.372z
		 M29.712,19.798c0-0.827,1.047-1.525,2.288-1.525c1.24,0,2.287,0.698,2.287,1.525c0,0.826-1.047,1.524-2.287,1.524
		C30.761,21.323,29.712,20.625,29.712,19.798L29.712,19.798z"/>
</g>
</svg>
