<?xml version="1.0" encoding="utf-8"?>
<!-- Generator: Adobe Illustrator 16.0.0, SVG Export Plug-In . SVG Version: 6.00 Build 0)  -->
<!DOCTYPE svg PUBLIC "-//W3C//DTD SVG 1.1//EN" "http://www.w3.org/Graphics/SVG/1.1/DTD/svg11.dtd">
<svg version="1.1" id="Layer_1" xmlns="http://www.w3.org/2000/svg" xmlns:xlink="http://www.w3.org/1999/xlink" x="0px" y="0px"
	 width="64px" height="64px" viewBox="0 0 64 64" enable-background="new 0 0 64 64" xml:space="preserve">
<text transform="matrix(1 0 0 1 12.7388 58.709)" font-family="'Helvetica'" font-size="11">Bowling</text>
<g id="_x36_4px-Line">
	<path id="Shape" d="M27.812,16.75c-0.353,1.082-0.838,2.22-1.341,3.395c-1.169,2.729-2.492,5.821-2.492,9.082
		c0,5.875,2.856,12.414,2.978,12.691c0.117,0.264,0.378,0.434,0.667,0.434h8.75c0.289,0,0.551-0.17,0.667-0.434
		c0.122-0.277,2.979-6.816,2.979-12.691c0-3.261-1.323-6.354-2.493-9.082c-0.502-1.174-0.986-2.313-1.34-3.395
		c-0.011-0.095-0.037-0.181-0.081-0.261c-0.279-0.906-0.461-1.771-0.461-2.574c0-2.323,0.445-3.495,0.84-4.528
		c0.318-0.833,0.618-1.62,0.618-2.764c0-2.814-2.29-5.104-5.104-5.104c-2.814,0-5.104,2.29-5.104,5.104
		c0,1.145,0.3,1.932,0.618,2.764c0.394,1.033,0.84,2.205,0.84,4.528c0,0.804-0.182,1.669-0.461,2.575
		C27.849,16.569,27.824,16.655,27.812,16.75L27.812,16.75z M34.487,16.103h-4.974c0.184-0.745,0.3-1.475,0.3-2.188
		c0-0.854-0.061-1.566-0.151-2.188h4.675c-0.09,0.622-0.15,1.333-0.15,2.188C34.188,14.628,34.304,15.358,34.487,16.103
		L34.487,16.103z M38.562,29.227c0,4.73-2.044,10.121-2.674,11.667H28.11c-0.629-1.547-2.673-6.938-2.673-11.667
		c0-2.962,1.207-5.782,2.375-8.508c0.462-1.081,0.908-2.132,1.265-3.158h5.847c0.357,1.026,0.802,2.078,1.265,3.158
		C37.355,23.445,38.562,26.265,38.562,29.227L38.562,29.227z M32,2.978c2.01,0,3.646,1.635,3.646,3.646
		c0,0.876-0.229,1.48-0.522,2.246c-0.157,0.412-0.329,0.861-0.481,1.4h-5.285c-0.153-0.539-0.324-0.99-0.481-1.4
		c-0.292-0.764-0.522-1.368-0.522-2.246C28.354,4.647,30.024,2.978,32,2.978L32,2.978z"/>
	<path id="Shape_1_" d="M47.312,16.832c0-2.323,0.445-3.494,0.84-4.528c0.319-0.833,0.618-1.619,0.618-2.764
		c0-2.814-2.289-5.104-5.104-5.104c-2.813,0-5.104,2.29-5.104,5.104c0,1.145,0.3,1.932,0.618,2.764
		c0.394,1.034,0.841,2.205,0.841,4.528c0,0.929-0.234,1.932-0.74,3.154c-0.152,0.372,0.024,0.798,0.397,0.952
		c0.09,0.037,0.186,0.055,0.278,0.055c0.286,0,0.558-0.169,0.674-0.452c0.01-0.021,0.016-0.042,0.023-0.063h6.026
		c0.346,0.844,0.762,1.688,1.192,2.55c1.159,2.32,2.356,4.719,2.356,7.658c0,4.654-1.989,8.949-2.628,10.209h-8.311
		c-0.402,0-0.729,0.326-0.729,0.729s0.326,0.729,0.729,0.729h8.75c0.263,0,0.505-0.141,0.635-0.369
		c0.124-0.217,3.012-5.385,3.012-11.297c0-3.282-1.334-5.955-2.509-8.31C48.218,20.455,47.312,18.641,47.312,16.832L47.312,16.832z
		 M43.666,5.894c2.011,0,3.646,1.636,3.646,3.646c0,0.877-0.229,1.481-0.521,2.246c-0.157,0.412-0.329,0.862-0.481,1.401h-5.285
		c-0.153-0.539-0.324-0.99-0.481-1.401c-0.291-0.764-0.521-1.368-0.521-2.246C40.021,7.564,41.69,5.894,43.666,5.894L43.666,5.894z
		 M41.149,19.019c0.214-0.774,0.33-1.494,0.33-2.188c0-0.854-0.06-1.566-0.151-2.188h4.677c-0.091,0.622-0.151,1.333-0.151,2.188
		c0,0.748,0.124,1.472,0.321,2.188H41.149L41.149,19.019z"/>
	<path id="Shape_2_" d="M12.312,30.686c0,5.912,2.888,11.08,3.012,11.297c0.129,0.229,0.372,0.369,0.634,0.369h8.75
		c0.403,0,0.729-0.326,0.729-0.729s-0.326-0.729-0.729-0.729h-8.311c-0.639-1.258-2.627-5.543-2.627-10.209
		c0-2.939,1.198-5.338,2.356-7.658c0.431-0.862,0.847-1.705,1.191-2.55h6.026c0.009,0.021,0.015,0.042,0.023,0.063
		c0.116,0.282,0.388,0.452,0.674,0.452c0.093,0,0.188-0.017,0.278-0.055c0.373-0.153,0.55-0.58,0.397-0.952
		c-0.504-1.222-0.738-2.225-0.738-3.154c0-2.323,0.446-3.494,0.84-4.528c0.318-0.833,0.618-1.619,0.618-2.764
		c0-2.814-2.291-5.104-5.104-5.104c-2.813,0-5.104,2.29-5.104,5.104c0,1.145,0.3,1.932,0.618,2.764
		c0.395,1.034,0.841,2.205,0.841,4.528c0,1.809-0.906,3.623-1.865,5.544C13.646,24.731,12.312,27.403,12.312,30.686L12.312,30.686z
		 M17.825,19.019c0.198-0.715,0.321-1.439,0.321-2.188c0-0.854-0.06-1.566-0.151-2.188h4.677c-0.091,0.622-0.151,1.333-0.151,2.188
		c0,0.694,0.115,1.414,0.329,2.188H17.825L17.825,19.019z M20.333,5.894c2.01,0,3.646,1.636,3.646,3.646
		c0,0.877-0.23,1.481-0.522,2.246c-0.157,0.412-0.328,0.862-0.481,1.401h-5.285c-0.153-0.539-0.324-0.99-0.481-1.401
		c-0.292-0.764-0.522-1.368-0.522-2.246C16.688,7.564,18.357,5.894,20.333,5.894L20.333,5.894z"/>
</g>
</svg>
