<?xml version="1.0" encoding="utf-8"?>
<!-- Generator: Adobe Illustrator 16.0.0, SVG Export Plug-In . SVG Version: 6.00 Build 0)  -->
<!DOCTYPE svg PUBLIC "-//W3C//DTD SVG 1.1//EN" "http://www.w3.org/Graphics/SVG/1.1/DTD/svg11.dtd">
<svg version="1.1" id="Layer_1" xmlns="http://www.w3.org/2000/svg" xmlns:xlink="http://www.w3.org/1999/xlink" x="0px" y="0px"
	 width="64px" height="77.375px" viewBox="0 0 64 77.375" enable-background="new 0 0 64 77.375" xml:space="preserve">
<text transform="matrix(1 0 0 1 14.27 58.709)" enable-background="new    "><tspan x="0" y="0" font-family="'Helvetica'" font-size="11">Church</tspan><tspan x="-3.969" y="13.2" font-family="'Helvetica'" font-size="11">Activities</tspan></text>
<g id="_x36_4px-Line">
	<path id="Shape" d="M36.652,42.573h12.17c0.42,0,0.761-0.341,0.761-0.761v-9.889l1.826,1.368c0.137,0.104,0.297,0.153,0.454,0.153
		c0.229,0,0.461-0.106,0.609-0.307c0.252-0.334,0.184-0.812-0.152-1.062l-11.865-8.9v-4.88l1.84,1.315
		c0.135,0.095,0.289,0.142,0.441,0.142c0.236,0,0.472-0.111,0.621-0.319c0.242-0.342,0.164-0.817-0.18-1.061l-10.33-7.378V6.063
		h2.282c0.42,0,0.761-0.34,0.761-0.76c0-0.42-0.341-0.761-0.761-0.761h-2.282V2.261c0-0.42-0.341-0.761-0.76-0.761
		s-0.761,0.34-0.761,0.761v2.282h-2.282c-0.419,0-0.761,0.34-0.761,0.761c0,0.421,0.341,0.76,0.761,0.76h2.282v4.933l-10.33,7.379
		c-0.342,0.243-0.421,0.719-0.177,1.062c0.244,0.342,0.719,0.42,1.061,0.176l1.84-1.314v4.879l-11.866,8.899
		c-0.336,0.251-0.404,0.729-0.152,1.062c0.149,0.201,0.377,0.307,0.609,0.307c0.158,0,0.318-0.051,0.456-0.153l1.825-1.368v9.889
		c0,0.42,0.341,0.761,0.761,0.761h12.17c0.42,0,0.76-0.341,0.76-0.761v-7.606c0-2.097,1.707-3.803,3.803-3.803
		c2.097,0,3.804,1.706,3.804,3.803v7.606C35.893,42.232,36.232,42.573,36.652,42.573L36.652,42.573z M32.088,28.882
		c-2.936,0-5.324,2.389-5.324,5.324v6.846H16.115V30.784l8.824-6.618c0.191-0.143,0.304-0.369,0.304-0.608v-6.346l6.846-4.89
		l6.845,4.89v6.346c0,0.239,0.113,0.465,0.307,0.608l8.822,6.618v10.268H37.413v-6.846C37.413,31.271,35.023,28.882,32.088,28.882
		L32.088,28.882z"/>
	<path id="Shape_1_" d="M32.088,18.233c-0.419,0-0.761,0.34-0.761,0.761v4.563c0,0.421,0.341,0.761,0.761,0.761
		s0.76-0.34,0.76-0.761v-4.563C32.85,18.574,32.508,18.233,32.088,18.233L32.088,18.233z"/>
</g>
</svg>
