<?xml version="1.0" encoding="utf-8"?>
<!-- Generator: Adobe Illustrator 16.0.0, SVG Export Plug-In . SVG Version: 6.00 Build 0)  -->
<!DOCTYPE svg PUBLIC "-//W3C//DTD SVG 1.1//EN" "http://www.w3.org/Graphics/SVG/1.1/DTD/svg11.dtd">
<svg version="1.1" id="Layer_1" xmlns="http://www.w3.org/2000/svg" xmlns:xlink="http://www.w3.org/1999/xlink" x="0px" y="0px"
	 width="64px" height="64px" viewBox="0 0 64 64" enable-background="new 0 0 64 64" xml:space="preserve">
<text transform="matrix(1 0 0 1 11.8208 58.709)" font-family="'Helvetica'" font-size="11">Cooking</text>
<g id="_x36_4px-Line">
	<path id="Shape" d="M31.672,17.242c-0.435,0-0.787,0.352-0.787,0.787v9.447c0,0.436,0.353,0.787,0.787,0.787
		c0.433,0,0.787-0.352,0.787-0.787v-9.447C32.458,17.594,32.105,17.242,31.672,17.242L31.672,17.242z"/>
	<path id="Shape_1_" d="M37.969,17.242c-0.435,0-0.786,0.352-0.786,0.787v9.447c0,0.436,0.352,0.787,0.786,0.787
		s0.787-0.352,0.787-0.787v-9.447C38.756,17.594,38.403,17.242,37.969,17.242L37.969,17.242z"/>
	<path id="Shape_2_" d="M25.375,17.242c-0.435,0-0.787,0.352-0.787,0.787v9.447c0,0.436,0.352,0.787,0.787,0.787
		c0.434,0,0.787-0.352,0.787-0.787v-9.447C26.162,17.594,25.809,17.242,25.375,17.242L25.375,17.242z"/>
	<path id="Shape_3_" d="M42.691,1.5c-2.032,0-3.961,0.703-5.509,1.985C35.685,2.246,33.764,1.5,31.672,1.5
		c-2.092,0-4.012,0.746-5.51,1.985C24.613,2.203,22.684,1.5,20.652,1.5c-4.774,0-8.659,3.885-8.659,8.659
		c0,3.968,2.612,7.438,6.297,8.487v12.91c-0.915,0.326-1.575,1.192-1.575,2.216v6.298c0,1.302,1.06,2.361,2.361,2.361h25.189
		c1.303,0,2.362-1.06,2.362-2.361v-6.298c0-1.023-0.661-1.89-1.575-2.216v-12.91c3.686-1.049,6.298-4.521,6.298-8.487
		C51.351,5.385,47.466,1.5,42.691,1.5L42.691,1.5z M45.053,40.07c0,0.434-0.354,0.787-0.787,0.787H19.077
		c-0.433,0-0.787-0.354-0.787-0.787v-6.298c0-0.434,0.354-0.786,0.787-0.786h25.189c0.434,0,0.787,0.353,0.787,0.786V40.07
		L45.053,40.07z M44.122,17.255c-0.374,0.07-0.644,0.394-0.644,0.774v13.383H19.864V18.029c0-0.375-0.264-0.696-0.63-0.772
		c-3.23-0.654-5.667-3.706-5.667-7.097c0-3.906,3.179-7.085,7.085-7.085c1.611,0,3.143,0.54,4.39,1.527
		c-1.264,1.505-2.029,3.443-2.029,5.559c0,0.434,0.353,0.787,0.787,0.787c0.435,0,0.788-0.353,0.788-0.787
		c0-3.906,3.178-7.085,7.084-7.085c3.905,0,7.084,3.179,7.084,7.085c0,0.434,0.354,0.787,0.788,0.787
		c0.434,0,0.786-0.353,0.786-0.787c0-2.116-0.764-4.053-2.027-5.559c1.246-0.988,2.778-1.527,4.389-1.527
		c3.905,0,7.085,3.179,7.085,7.085C49.776,13.544,47.344,16.595,44.122,17.255L44.122,17.255z"/>
</g>
</svg>
