<?xml version="1.0" encoding="utf-8"?>
<!-- Generator: Adobe Illustrator 16.0.0, SVG Export Plug-In . SVG Version: 6.00 Build 0)  -->
<!DOCTYPE svg PUBLIC "-//W3C//DTD SVG 1.1//EN" "http://www.w3.org/Graphics/SVG/1.1/DTD/svg11.dtd">
<svg version="1.1" id="Layer_1" xmlns="http://www.w3.org/2000/svg" xmlns:xlink="http://www.w3.org/1999/xlink" x="0px" y="0px"
	 width="64px" height="64px" viewBox="0 0 64 64" enable-background="new 0 0 64 64" xml:space="preserve">
<text transform="matrix(1 0 0 1 14.8882 58.709)" font-family="'Helvetica'" font-size="11">Cricket</text>
<g id="_x36_4px-Line_1_">
	<path id="Shape_5_" d="M47.98,1.712c-0.282-0.282-0.738-0.282-1.021,0l-9.392,9.391l-1.918-0.64
		c-0.813-0.272-1.694-0.062-2.299,0.543l-21.69,21.689c-0.74,0.739-0.871,1.912-0.312,2.789c0.538,0.841,1.446,2.109,2.715,3.379
		c1.269,1.269,2.538,2.177,3.378,2.714c0.364,0.232,0.779,0.347,1.193,0.347c0.583,0,1.163-0.226,1.596-0.658l21.689-21.689
		c0.605-0.605,0.813-1.486,0.542-2.3l-0.639-1.918l9.392-9.391c0.135-0.136,0.211-0.319,0.211-0.51s-0.076-0.375-0.211-0.511
		L47.98,1.712L47.98,1.712z M40.901,18.556l-21.69,21.69c-0.265,0.264-0.681,0.314-0.99,0.115c-0.78-0.499-1.958-1.342-3.136-2.52
		c-1.178-1.177-2.02-2.354-2.52-3.136c-0.197-0.309-0.149-0.725,0.116-0.989l21.689-21.689c0.154-0.154,0.357-0.236,0.566-0.236
		c0.084,0,0.172,0.014,0.255,0.042l2.181,0.727l2.994,2.995l0.727,2.179C41.191,18.025,41.117,18.34,40.901,18.556L40.901,18.556z
		 M41,14.144l-2.215-2.215l8.685-8.686l2.215,2.215L41,14.144L41,14.144z"/>
	<path id="Shape_4_" d="M48.54,36.151c0-3.184-2.591-5.775-5.775-5.775c-3.184,0-5.774,2.591-5.774,5.775
		c0,3.186,2.591,5.775,5.774,5.775C45.949,41.927,48.54,39.337,48.54,36.151L48.54,36.151z M38.434,36.151
		c0-2.389,1.943-4.331,4.331-4.331c2.389,0,4.332,1.942,4.332,4.331s-1.943,4.332-4.332,4.332
		C40.377,40.483,38.434,38.54,38.434,36.151L38.434,36.151z"/>
</g>
</svg>
