<?xml version="1.0" encoding="utf-8"?>
<!-- Generator: Adobe Illustrator 16.0.0, SVG Export Plug-In . SVG Version: 6.00 Build 0)  -->
<!DOCTYPE svg PUBLIC "-//W3C//DTD SVG 1.1//EN" "http://www.w3.org/Graphics/SVG/1.1/DTD/svg11.dtd">
<svg version="1.1" id="Layer_1" xmlns="http://www.w3.org/2000/svg" xmlns:xlink="http://www.w3.org/1999/xlink" x="0px" y="0px"
	 width="64px" height="64px" viewBox="0 0 64 64" enable-background="new 0 0 64 64" xml:space="preserve">
<text transform="matrix(1 0 0 1 18.8599 58.709)" font-family="'Helvetica'" font-size="11">Darts</text>
<g id="_x36_4px-Line_1_">
	<path id="Shape_1_" d="M11.347,42.205c0.147,0.147,0.341,0.221,0.534,0.221s0.386-0.073,0.534-0.221L18.1,36.52l1.326,1.324
		c0.452,0.451,1.045,0.677,1.638,0.677c0.593,0,1.187-0.227,1.638-0.677l2.209-2.209c6.61-6.609,10.669-13.451,11.681-15.244
		c1.868,0.164,8.236,0.443,11.71-3.03c5.104-5.107,3.402-7.601,2.759-8.245c-0.76-0.761-1.99-0.425-3.291-0.069
		c-0.894,0.244-1.868,0.505-2.596,0.398l2.575-2.575c0.294-0.295,0.294-0.771,0-1.067c-0.295-0.294-0.772-0.294-1.067,0
		l-2.575,2.576C44,7.651,44.261,6.677,44.505,5.784c0.356-1.301,0.692-2.531-0.069-3.292c-0.643-0.643-3.137-2.346-8.245,2.76
		c-3.472,3.472-3.195,9.84-3.03,11.709c-1.793,1.012-8.635,5.072-15.244,11.681l-2.209,2.208c-0.902,0.903-0.902,2.374,0,3.276
		l1.325,1.325l-5.686,5.688C11.052,41.433,11.052,41.91,11.347,42.205L11.347,42.205z M34.316,18.046
		c0.278-0.147,0.438-0.454,0.396-0.767c-0.01-0.074-0.938-7.478,2.546-10.962c3.275-3.274,5.339-3.53,6.103-2.771
		c0.128,0.232-0.146,1.237-0.312,1.838c-0.365,1.333-0.795,2.94-0.128,4.18l-5.073,5.072c-0.296,0.295-0.296,0.772,0,1.067
		c0.146,0.147,0.341,0.221,0.533,0.221c0.193,0,0.387-0.074,0.534-0.221l5.073-5.074c1.241,0.667,2.846,0.236,4.179-0.128
		c0.602-0.165,1.606-0.44,1.827-0.32c0.771,0.772,0.514,2.837-2.76,6.111c-3.483,3.484-10.889,2.554-10.962,2.546
		c-0.312-0.044-0.619,0.116-0.768,0.396c-0.039,0.076-3.984,7.48-11.132,14.795l-4.852-4.853
		C26.835,22.032,34.24,18.087,34.316,18.046L34.316,18.046z M16.775,31.917l1.675-1.676l4.859,4.86l-1.675,1.674
		c-0.313,0.315-0.827,0.314-1.142,0l-1.857-1.856l0-0.001l-0.001-0.001l-1.857-1.857C16.46,32.745,16.46,32.232,16.775,31.917
		L16.775,31.917z"/>
</g>
</svg>
