<?xml version="1.0" encoding="utf-8"?>
<!-- Generator: Adobe Illustrator 16.0.0, SVG Export Plug-In . SVG Version: 6.00 Build 0)  -->
<!DOCTYPE svg PUBLIC "-//W3C//DTD SVG 1.1//EN" "http://www.w3.org/Graphics/SVG/1.1/DTD/svg11.dtd">
<svg version="1.1" id="Layer_1" xmlns="http://www.w3.org/2000/svg" xmlns:xlink="http://www.w3.org/1999/xlink" x="0px" y="0px"
	 width="64px" height="64px" viewBox="0 0 64 64" enable-background="new 0 0 64 64" xml:space="preserve">
<text transform="matrix(1 0 0 1 14.27 58.709)" font-family="'Helvetica'" font-size="11">Fishing</text>
<g id="_x36_4px-Line_1_">
	<path id="Shape_4_" d="M15.562,31.92c2.516,0,4.563-2.047,4.563-4.563v-9.266c0.883-0.315,1.521-1.152,1.521-2.142
		c0-1.258-1.023-2.282-2.281-2.282c-1.258,0-2.282,1.024-2.282,2.282c0,0.99,0.638,1.827,1.521,2.142v9.266
		c0,1.678-1.364,3.042-3.042,3.042s-3.042-1.364-3.042-3.042v-1.967l0.223,0.223c0.297,0.297,0.778,0.297,1.076,0
		c0.297-0.297,0.297-0.778,0-1.075l-1.521-1.521c-0.218-0.218-0.544-0.283-0.829-0.165c-0.284,0.118-0.469,0.395-0.469,0.703v3.803
		C10.999,29.874,13.045,31.92,15.562,31.92L15.562,31.92z M19.365,15.189c0.419,0,0.76,0.341,0.76,0.761s-0.341,0.76-0.76,0.76
		c-0.42,0-0.761-0.341-0.761-0.76S18.945,15.189,19.365,15.189L19.365,15.189z"/>
	<path id="Shape_3_" d="M20.125,11.387V2.261c0-0.42-0.34-0.761-0.76-0.761s-0.761,0.34-0.761,0.761v9.126
		c0,0.42,0.34,0.76,0.761,0.76S20.125,11.807,20.125,11.387L20.125,11.387z"/>
	<path id="Shape_1_" d="M20.205,33.861c-0.107,0.214-0.107,0.467,0,0.682c0.164,0.326,4.105,8.024,12.088,8.024
		c4.177,0,7.968-3.646,11.358-7.252c2.868,3.083,5.347,5.73,7.654,5.73c0.421,0,0.761-0.34,0.761-0.76V28.118
		c0-0.42-0.34-0.76-0.761-0.76c-2.308,0-4.787,2.648-7.654,5.73c-3.391-3.605-7.181-7.251-11.358-7.251
		C24.31,25.836,20.369,33.534,20.205,33.861L20.205,33.861z M44.71,34.184c2.173-2.335,4.243-4.561,5.835-5.151v10.341
		c-1.592-0.591-3.661-2.815-5.835-5.152c-0.007-0.006-0.013-0.012-0.017-0.018C44.699,34.196,44.703,34.188,44.71,34.184
		L44.71,34.184z M42.612,34.202c-3.196,3.401-6.737,6.844-10.319,6.844c-6.136,0-9.705-5.417-10.537-6.844
		c0.833-1.428,4.401-6.845,10.537-6.845C35.875,27.357,39.416,30.8,42.612,34.202L42.612,34.202z"/>
	<circle id="Oval" cx="27.73" cy="31.92" r="1.521"/>
</g>
</svg>
