<?xml version="1.0" encoding="utf-8"?>
<!-- Generator: Adobe Illustrator 16.0.0, SVG Export Plug-In . SVG Version: 6.00 Build 0)  -->
<!DOCTYPE svg PUBLIC "-//W3C//DTD SVG 1.1//EN" "http://www.w3.org/Graphics/SVG/1.1/DTD/svg11.dtd">
<svg version="1.1" id="Layer_1" xmlns="http://www.w3.org/2000/svg" xmlns:xlink="http://www.w3.org/1999/xlink" x="0px" y="0px"
	 width="64px" height="64px" viewBox="0 0 64 64" enable-background="new 0 0 64 64" xml:space="preserve">
<text transform="matrix(1 0 0 1 12.4331 58.709)" font-family="'Helvetica'" font-size="11">Football</text>
<g id="_x36_4px-Line">
	<path id="Shape" d="M29.995,35.31c-1.902,0-3.45,1.548-3.45,3.45s1.548,3.45,3.45,3.45s3.45-1.548,3.45-3.45
		S31.897,35.31,29.995,35.31L29.995,35.31z M29.995,40.83c-1.142,0-2.07-0.929-2.07-2.07s0.929-2.069,2.07-2.069
		s2.069,0.928,2.069,2.069S31.137,40.83,29.995,40.83L29.995,40.83z"/>
	<path id="Shape_5_" d="M15.811,11.159l11.138,0.624L16.53,27.969c-0.622,0.957-0.353,2.241,0.604,2.865
		c0.463,0.303,1.016,0.407,1.558,0.291c0.541-0.115,1.006-0.431,1.282-0.861l4.752-6.401c0.072-0.102,0.17-0.132,0.223-0.142
		c0.057-0.009,0.157-0.013,0.257,0.058c0.146,0.102,0.141,0.36,0.046,0.542l-8.775,15.216c-0.252,0.386-0.34,0.847-0.246,1.297
		c0.095,0.451,0.359,0.839,0.743,1.091c0.285,0.187,0.61,0.284,0.943,0.284c0.118,0,0.236-0.013,0.354-0.037
		c0.452-0.093,0.84-0.357,1.09-0.74l16.171-24.451l2.792,2.792c1.29,1.306,2.412,1.698,4.279,1.502l4.383-0.462
		c0.966-0.121,1.64-0.828,1.64-1.719c0-0.951-0.773-1.725-1.725-1.725h-4.098c-0.681,0-0.865-0.072-1.307-0.514l-3.373-3.372
		c-0.213-0.236-5.32-5.774-10.198-5.774H15.85c-0.952,0-1.725,0.774-1.725,1.725C14.125,10.345,14.825,11.07,15.811,11.159
		L15.811,11.159z M15.85,9.09h12.075c4.267,0,9.131,5.271,9.201,5.347l3.395,3.395c0.704,0.704,1.237,0.918,2.284,0.918H46.9
		c0.189,0,0.346,0.155,0.346,0.345c0,0.288-0.388,0.345-0.418,0.348l-4.369,0.46c-1.452,0.154-2.158-0.094-3.155-1.102l-3.393-3.393
		c-0.146-0.146-0.348-0.222-0.558-0.199c-0.207,0.021-0.392,0.133-0.506,0.306L18.209,40.674c-0.068,0.104-0.165,0.139-0.218,0.148
		c-0.052,0.011-0.155,0.019-0.26-0.05c-0.103-0.067-0.138-0.166-0.148-0.218s-0.019-0.155,0.07-0.293l8.801-15.26
		c0.003-0.005,0.006-0.01,0.009-0.016c0.45-0.83,0.251-1.834-0.461-2.334c-0.293-0.208-0.637-0.315-0.99-0.315
		c-0.098,0-0.198,0.008-0.298,0.025c-0.454,0.08-0.851,0.331-1.105,0.693l-4.766,6.421c-0.101,0.154-0.255,0.26-0.435,0.299
		c-0.186,0.037-0.366,0.002-0.519-0.097c-0.319-0.208-0.409-0.637-0.199-0.959l11.062-17.186c0.132-0.206,0.146-0.468,0.034-0.687
		c-0.111-0.219-0.331-0.361-0.576-0.375L15.914,9.783c-0.068-0.006-0.408-0.052-0.408-0.348C15.505,9.245,15.66,9.09,15.85,9.09
		L15.85,9.09z"/>
	<path id="Shape_2_" d="M34.998,9.21c0.581,0.377,1.196,0.569,1.812,0.569c0.215,0,0.43-0.023,0.644-0.071
		c1.031-0.229,1.971-0.983,2.718-2.18c1.372-2.199,1.107-4.291-0.69-5.458c-0.783-0.509-1.632-0.683-2.456-0.499
		c-1.03,0.229-1.97,0.982-2.717,2.18C32.936,5.952,33.199,8.044,34.998,9.21L34.998,9.21z M35.479,4.482
		c0.538-0.864,1.194-1.419,1.846-1.564c0.117-0.026,0.235-0.039,0.352-0.039c0.348,0,0.695,0.115,1.053,0.348
		c1.606,1.042,0.725,2.844,0.271,3.57c-0.539,0.863-1.193,1.419-1.846,1.563c-0.469,0.105-0.928,0.003-1.406-0.308
		C34.145,7.012,35.025,5.209,35.479,4.482L35.479,4.482z"/>
</g>
</svg>
