<?xml version="1.0" encoding="utf-8"?>
<!-- Generator: Adobe Illustrator 16.0.0, SVG Export Plug-In . SVG Version: 6.00 Build 0)  -->
<!DOCTYPE svg PUBLIC "-//W3C//DTD SVG 1.1//EN" "http://www.w3.org/Graphics/SVG/1.1/DTD/svg11.dtd">
<svg version="1.1" id="Layer_1" xmlns="http://www.w3.org/2000/svg" xmlns:xlink="http://www.w3.org/1999/xlink" x="0px" y="0px"
	 width="64px" height="64px" viewBox="0 0 64 64" enable-background="new 0 0 64 64" xml:space="preserve">
<text transform="matrix(1 0 0 1 21.9126 58.709)" font-family="'Helvetica'" font-size="11">Golf</text>
<g id="_x36_4px-Line_1_">
	<path id="Shape_4_" d="M30.611,3.457c-1.98,0-3.26,1.535-3.26,3.912s1.279,3.912,3.26,3.912c1.981,0,3.26-1.535,3.26-3.912
		S32.593,3.457,30.611,3.457L30.611,3.457z M30.611,9.978c-1.766,0-1.956-1.824-1.956-2.608s0.19-2.608,1.956-2.608
		c1.767,0,1.956,1.824,1.956,2.608S32.378,9.978,30.611,9.978L30.611,9.978z"/>
	<path id="Shape_3_" d="M18.697,12.569l4.573,1.785l-1.77,5.92c-0.402,1.704-0.666,2.999-0.666,5.376l-0.004,14.647
		c0,0.898,0.732,1.63,1.63,1.63s1.63-0.731,1.629-1.601l0.598-13.368c0.005-0.113,0.05-0.68,0.441-0.68
		c0.381,0,0.652,0.486,0.814,0.892l5.454,13.776c0.173,0.4,0.493,0.707,0.897,0.867c0.193,0.077,0.396,0.114,0.599,0.114
		c0.221,0,0.44-0.045,0.649-0.136c0.781-0.34,1.153-1.239,0.861-2.104l-4.238-11.825c-0.7-1.916-0.604-3.022-0.15-4.603l2.068-5.91
		c0.324-1.207,0.064-3.831-3.243-5.133l-0.002,0.006c-0.375-0.163-1.693-0.666-6.914-2.606l1.848-5.302l1.991,0.7
		c0.07,0.026,0.145,0.038,0.216,0.038c0.27,0,0.521-0.168,0.615-0.437c0.119-0.34-0.06-0.712-0.399-0.832l-2.11-0.741
		c-0.011-0.194-0.053-0.387-0.134-0.571c-0.176-0.398-0.497-0.704-0.903-0.861c-0.408-0.157-0.848-0.147-1.247,0.029
		c-0.398,0.176-0.705,0.497-0.848,0.872l-3.367,7.524C17.195,11.04,17.694,12.177,18.697,12.569L18.697,12.569z M18.79,10.539
		l3.367-7.526c0.042-0.109,0.125-0.16,0.172-0.18c0.042-0.019,0.087-0.028,0.132-0.028c0.04,0,0.08,0.008,0.118,0.022
		c0.11,0.042,0.16,0.125,0.181,0.172c0.02,0.046,0.048,0.14,0.005,0.249c-0.002,0.007-0.005,0.014-0.007,0.021l-2.275,6.522
		c-0.116,0.335,0.056,0.702,0.389,0.826c6.608,2.455,7.375,2.765,7.457,2.798c0.012,0.005,0.024,0.011,0.035,0.016
		c2.975,1.17,2.522,3.341,2.477,3.534l-2.064,5.899c-0.521,1.812-0.648,3.216,0.165,5.442l4.233,11.81
		c0.059,0.175,0.037,0.398-0.149,0.479c-0.105,0.047-0.202,0.023-0.249,0.004c-0.046-0.018-0.133-0.066-0.171-0.152l-5.447-13.758
		c-0.562-1.417-1.412-1.716-2.025-1.716c-0.979,0-1.696,0.793-1.745,1.927l-0.6,13.397c0,0.18-0.146,0.326-0.326,0.326
		s-0.326-0.146-0.326-0.326l0.004-14.647c0-2.243,0.239-3.414,0.622-5.04l1.931-6.459c0.098-0.326-0.07-0.671-0.387-0.794
		l-5.132-2.003C18.837,11.224,18.671,10.845,18.79,10.539L18.79,10.539z"/>
	<path id="Shape_1_" d="M35.21,7.792c-0.114,0.341,0.068,0.711,0.41,0.825l6.019,2.023l-1.756,2.189
		c-0.134,0.166-0.176,0.387-0.116,0.592c0.06,0.205,0.217,0.366,0.419,0.434l1.956,0.652c0.069,0.023,0.138,0.033,0.207,0.033
		c0.258,0,0.503-0.157,0.604-0.409l1.304-3.26c0.066-0.167,0.062-0.354-0.013-0.516c-0.075-0.163-0.215-0.288-0.384-0.344
		L42.962,9.71c-0.014-0.006-0.029-0.011-0.044-0.016l-6.883-2.312C35.694,7.267,35.324,7.451,35.21,7.792L35.21,7.792z
		 M41.972,13.077l-0.484-0.162l1.096-1.366L41.972,13.077L41.972,13.077z"/>
</g>
</svg>
