<?xml version="1.0" encoding="utf-8"?>
<!-- Generator: Adobe Illustrator 16.0.0, SVG Export Plug-In . SVG Version: 6.00 Build 0)  -->
<!DOCTYPE svg PUBLIC "-//W3C//DTD SVG 1.1//EN" "http://www.w3.org/Graphics/SVG/1.1/DTD/svg11.dtd">
<svg version="1.1" id="Layer_1" xmlns="http://www.w3.org/2000/svg" xmlns:xlink="http://www.w3.org/1999/xlink" x="0px" y="0px"
	 width="64px" height="64px" viewBox="0 0 64 64" enable-background="new 0 0 64 64" xml:space="preserve">
<text transform="matrix(1 0 0 1 5.7085 58.709)" font-family="'Helvetica'" font-size="11">Ice skating</text>
<g id="_x36_4px-Line">
	<path id="Shape" d="M53.547,12.419c-0.412,0-0.745,0.333-0.745,0.744v6.702c0,0.821-0.668,1.489-1.489,1.489
		c-0.411,0-0.744,0.333-0.744,0.745s0.333,0.745,0.744,0.745c1.643,0,2.979-1.336,2.979-2.978v-6.702
		C54.291,12.752,53.958,12.419,53.547,12.419L53.547,12.419z"/>
	<path id="Shape_11_" d="M51.312,15.77c0-1.026-0.835-1.861-1.861-1.861l-13.031,0c-0.41,0-0.744,0.333-0.744,0.744
		s0.333,0.745,0.744,0.745l13.031,0.001c0.205,0,0.372,0.167,0.372,0.372c0,0.303-0.307,0.364-0.417,0.374L37.12,16.887
		c-0.41,0.025-0.724,0.377-0.699,0.789c0.024,0.395,0.353,0.699,0.742,0.699c0.017,0,0.031-0.001,0.047-0.001l12.307-0.745
		C50.574,17.534,51.312,16.77,51.312,15.77L51.312,15.77z"/>
	<path id="Shape_6_" d="M35.676,40.713h-6.702c-0.822,0-1.489-0.667-1.489-1.489c0-0.411-0.333-0.744-0.745-0.744
		s-0.745,0.333-0.745,0.744c0,1.644,1.336,2.979,2.979,2.979h6.702c0.411,0,0.744-0.333,0.744-0.744
		C36.42,41.046,36.087,40.713,35.676,40.713L35.676,40.713z"/>
	<path id="Shape_5_" d="M30.463,37.362c0,1.027,0.835,1.861,1.862,1.861c1.026,0,1.861-0.834,1.86-1.832l0.745-18.988
		c0-0.01,0-0.019,0-0.029c0-1.194-0.464-2.315-1.308-3.159c-0.845-0.844-1.966-1.308-3.158-1.308h-0.002l-8.709-0.001l8.164-8.736
		c0.727-0.726,0.727-1.907,0-2.632c-0.704-0.704-1.941-0.693-2.622-0.01l-10.007,9.654c-1.14,1.101-1.717,2.418-1.717,3.916v2.276
		c0,2.463,2.004,4.468,4.468,4.468h10.424L30.463,37.362L30.463,37.362z M20.039,21.354c-1.643,0-2.979-1.336-2.979-2.979v-2.276
		c0-1.094,0.413-2.024,1.261-2.844l10.017-9.664c0.094-0.095,0.205-0.109,0.263-0.109c0.058,0,0.168,0.014,0.263,0.109
		c0.096,0.094,0.109,0.207,0.109,0.264s-0.015,0.168-0.126,0.281l-9.353,10.007c-0.203,0.217-0.258,0.534-0.139,0.805
		c0.118,0.272,0.386,0.448,0.683,0.448l10.425,0h0.001c0.795,0,1.543,0.31,2.104,0.872c0.561,0.559,0.869,1.302,0.873,2.092
		l-0.745,19.002c0,0.204-0.168,0.372-0.372,0.372s-0.372-0.168-0.372-0.372V22.098c0-0.412-0.333-0.745-0.745-0.745H20.039
		L20.039,21.354z"/>
	<path id="Shape_2_" d="M11.848,6.461c-2.262,0-3.723,1.754-3.723,4.468c0,2.714,1.461,4.468,3.723,4.468
		c2.261,0,3.723-1.753,3.723-4.468C15.571,8.215,14.109,6.461,11.848,6.461L11.848,6.461z M11.848,13.907
		c-2.017,0-2.234-2.083-2.234-2.979S9.832,7.95,11.848,7.95c2.016,0,2.234,2.083,2.234,2.979S13.864,13.907,11.848,13.907
		L11.848,13.907z"/>
</g>
</svg>
