<?xml version="1.0" encoding="utf-8"?>
<!-- Generator: Adobe Illustrator 16.0.0, SVG Export Plug-In . SVG Version: 6.00 Build 0)  -->
<!DOCTYPE svg PUBLIC "-//W3C//DTD SVG 1.1//EN" "http://www.w3.org/Graphics/SVG/1.1/DTD/svg11.dtd">
<svg version="1.1" id="Layer_1" xmlns="http://www.w3.org/2000/svg" xmlns:xlink="http://www.w3.org/1999/xlink" x="0px" y="0px"
	 width="64px" height="64px" viewBox="0 0 64 64" enable-background="new 0 0 64 64" xml:space="preserve">
<text transform="matrix(1 0 0 1 12.7339 58.709)" font-family="'Helvetica'" font-size="11">Jogging</text>
<g id="_x36_4px-Line_1_">
	<path id="Shape_4_" d="M17.702,35.254h8.569c1.272,0,2.436-0.748,2.964-1.904l1.082-2.364c0.15-0.327,0.006-0.714-0.321-0.864
		c-0.326-0.15-0.715-0.005-0.864,0.321l-1.081,2.363c-0.317,0.694-1.016,1.143-1.779,1.143h-8.569c-0.196,0-0.375-0.133-0.391-0.289
		c-0.019-0.194,0.123-0.334,0.221-0.352l8.482-0.712c0.526-0.044,0.971-0.398,1.133-0.901l0.95-2.953
		c0.109-0.342-0.079-0.71-0.422-0.82c-0.344-0.11-0.71,0.079-0.82,0.422l-0.949,2.952l-8.532,0.718
		c-0.849,0.137-1.446,0.918-1.359,1.776C16.097,34.611,16.838,35.254,17.702,35.254L17.702,35.254z"/>
	<path id="Shape_3_" d="M32.307,9.824c1.981,0,3.261-1.536,3.261-3.913c0-2.376-1.279-3.912-3.261-3.912
		c-1.98,0-3.26,1.536-3.26,3.912C29.047,8.288,30.326,9.824,32.307,9.824L32.307,9.824z M32.307,3.303
		c1.766,0,1.956,1.824,1.956,2.608c0,0.785-0.19,2.608-1.956,2.608s-1.956-1.824-1.956-2.608
		C30.351,5.127,30.541,3.303,32.307,3.303L32.307,3.303z"/>
	<path id="Shape_1_" d="M22.69,26.77c0.862,0.085,1.643-0.521,1.775-1.398c0.024-0.202,0.585-4.983,0.667-6.124
		c0.061-0.851,0.12-1.169,0.881-1.651c0.494-0.312,1.171-0.754,1.729-1.12v8.344c0,1.867,1.417,3.014,2.262,3.532
		c0.384,0.235,0.705,0.529,0.938,0.846l8.105,12.413c0.346,0.525,0.847,0.815,1.411,0.815c0.898,0,1.63-0.731,1.63-1.63
		c0-0.32-0.092-0.629-0.267-0.895c-1.788-3.067-6.254-11.279-6.254-13.818v-7.269l0.71,0.938c0.857,1.131,2.219,1.808,3.639,1.808
		h4.392c0.863,0,1.586-0.618,1.681-1.437c0.1-0.85-0.455-1.62-1.34-1.798l-3.898-0.49c-0.882-0.122-1.284-0.36-1.86-1.087
		l-2.357-3.213c-1.041-1.421-2.622-2.29-4.337-2.386c-2.02-0.113-3.978,0.403-5.826,1.545l-2.646,1.726
		c-1.708,1.114-2.501,2.571-2.501,4.585v6.074C21.222,25.947,21.867,26.689,22.69,26.77L22.69,26.77z M22.526,19.005
		c0-1.596,0.554-2.608,1.91-3.493l2.631-1.717c1.604-0.99,3.303-1.443,5.055-1.344c1.325,0.074,2.549,0.75,3.359,1.855l2.37,3.232
		c0.682,0.862,1.346,1.399,2.729,1.59l3.857,0.483c0.142,0.029,0.279,0.165,0.257,0.362c-0.018,0.153-0.194,0.283-0.386,0.283
		h-4.392c-1.015,0-1.986-0.483-2.599-1.291l-1.883-2.485c-0.17-0.224-0.462-0.312-0.728-0.224c-0.266,0.089-0.445,0.337-0.445,0.618
		v9.21c0,3.303,5.555,12.97,6.428,14.47c0.007,0.013,0.015,0.025,0.021,0.038c0.013,0.02,0.022,0.038,0.032,0.054
		c0.004,0.008,0.008,0.015,0.012,0.021c0.019,0.041,0.027,0.084,0.027,0.131c0,0.18-0.146,0.326-0.325,0.326
		c-0.042,0-0.171,0-0.32-0.227l-8.124-12.438c-0.352-0.482-0.799-0.892-1.328-1.217c-0.611-0.375-1.639-1.189-1.639-2.421v-9.555
		c0-0.241-0.133-0.461-0.344-0.575c-0.097-0.051-0.203-0.077-0.309-0.077c-0.126,0-0.252,0.036-0.36,0.109
		c0,0-1.729,1.146-2.718,1.773c-1.259,0.797-1.409,1.604-1.484,2.66c-0.08,1.112-0.655,6.016-0.658,6.043
		c-0.023,0.149-0.16,0.286-0.357,0.273c-0.157-0.016-0.291-0.195-0.291-0.393L22.526,19.005L22.526,19.005z"/>
</g>
</svg>
