<?xml version="1.0" encoding="utf-8"?>
<!-- Generator: Adobe Illustrator 16.0.0, SVG Export Plug-In . SVG Version: 6.00 Build 0)  -->
<!DOCTYPE svg PUBLIC "-//W3C//DTD SVG 1.1//EN" "http://www.w3.org/Graphics/SVG/1.1/DTD/svg11.dtd">
<svg version="1.1" id="Layer_1" xmlns="http://www.w3.org/2000/svg" xmlns:xlink="http://www.w3.org/1999/xlink" x="0px" y="0px"
	 width="64px" height="64px" viewBox="0 0 64 64" enable-background="new 0 0 64 64" xml:space="preserve">
<text transform="matrix(1 0 0 1 20.0737 58.709)" font-family="'Helvetica'" font-size="11">Judo</text>
<g id="_x36_4px-Line">
	<path id="Shape" d="M36.853,6.045c0-2.761-1.487-4.545-3.788-4.545c-2.3,0-3.788,1.784-3.788,4.545
		c0,2.762,1.487,4.546,3.788,4.546C35.365,10.591,36.853,8.807,36.853,6.045L36.853,6.045z M30.792,6.045
		c0-0.911,0.221-3.03,2.272-3.03c2.053,0,2.273,2.119,2.273,3.03c0,0.912-0.221,3.031-2.273,3.031
		C31.013,9.076,30.792,6.957,30.792,6.045L30.792,6.045z"/>
	<path id="Shape_6_" d="M16.019,13.622h12.5c0.419,0,0.757-0.339,0.757-0.758c0-0.418-0.338-0.757-0.757-0.757h-12.5
		c-1.045,0-1.894,0.849-1.894,1.894c0,1.043,0.848,1.893,1.838,1.893h0.004l10.985,0.757c0.018,0.001,0.035,0.001,0.052,0.001
		c0.395,0,0.727-0.305,0.755-0.706c0.028-0.417-0.286-0.779-0.705-0.808l-11.037-0.759c-0.208,0-0.379-0.17-0.379-0.378
		C15.64,13.792,15.811,13.622,16.019,13.622L16.019,13.622z"/>
	<path id="Shape_5_" d="M22.08,42.41c0.998,0,1.793-0.768,1.893-1.842l0.68-9.868c0.025-0.249,0.075-0.412,0.521-0.412h8.649
		c2.507,0,4.546-2.039,4.546-4.545v-3.03l5.303,0h0.002c0.606,0,1.177-0.237,1.605-0.666c0.429-0.428,0.666-1,0.666-1.607
		c0-0.486-0.151-0.948-0.437-1.338c-0.028-0.042-0.062-0.079-0.099-0.111l-5.563-5.698c-0.769-0.787-1.776-1.187-2.993-1.187h-3.03
		c-2.506,0-4.545,2.039-4.545,4.546v8.413l-6.149,0.683c-1.76,0.207-2.942,1.422-2.942,3.025v11.743
		C20.186,41.561,21.035,42.41,22.08,42.41L22.08,42.41z M21.701,28.773c0-0.982,0.828-1.429,1.598-1.52l6.818-0.758
		c0.385-0.043,0.675-0.367,0.675-0.753v-9.091c0-1.671,1.359-3.03,3.03-3.03h3.03c0.806,0,1.43,0.239,1.909,0.729l5.552,5.687
		c0.076,0.12,0.115,0.259,0.115,0.403c0,0.202-0.078,0.393-0.222,0.536c-0.143,0.143-0.332,0.221-0.535,0.221h-0.001l-6.033,0.001
		c-0.019-0.001-0.036-0.001-0.055,0h-3.382c-0.209,0-0.379-0.171-0.379-0.379c0-0.293,0.332-0.366,0.479-0.385l5.683-0.758
		c0.285-0.039,0.525-0.235,0.617-0.509c0.092-0.272,0.022-0.574-0.182-0.778l-3.03-3.031c-0.296-0.296-0.775-0.296-1.071,0
		c-0.296,0.296-0.296,0.775,0,1.071l1.945,1.947l-4.156,0.553c-1.06,0.135-1.8,0.91-1.8,1.888c0,1.044,0.85,1.894,1.895,1.894h2.651
		v3.03c0,1.671-1.358,3.03-3.03,3.03h-8.649c-1.14,0-1.917,0.679-2.031,1.799l-0.68,9.874c-0.019,0.206-0.13,0.448-0.382,0.448
		c-0.208,0-0.378-0.17-0.378-0.378V28.773L21.701,28.773z"/>
	<path id="Shape_2_" d="M45.74,41.855c0.357,0.358,0.833,0.555,1.34,0.555s0.981-0.196,1.34-0.555
		c0.358-0.357,0.555-0.833,0.555-1.339c0-0.507-0.197-0.981-0.517-1.298l-8.759-10.181c-0.271-0.316-0.751-0.354-1.067-0.08
		c-0.318,0.272-0.354,0.75-0.08,1.068l8.797,10.221c0.146,0.148,0.146,0.389,0,0.536c-0.098,0.098-0.21,0.11-0.269,0.11
		c-0.06,0-0.171-0.015-0.266-0.109l-9.424-9.515c-0.295-0.297-0.773-0.3-1.072-0.005c-0.297,0.294-0.3,0.774-0.005,1.072
		L45.74,41.855L45.74,41.855z"/>
</g>
</svg>
