<?xml version="1.0" encoding="utf-8"?>
<!-- Generator: Adobe Illustrator 16.0.0, SVG Export Plug-In . SVG Version: 6.00 Build 0)  -->
<!DOCTYPE svg PUBLIC "-//W3C//DTD SVG 1.1//EN" "http://www.w3.org/Graphics/SVG/1.1/DTD/svg11.dtd">
<svg version="1.1" id="Layer_1" xmlns="http://www.w3.org/2000/svg" xmlns:xlink="http://www.w3.org/1999/xlink" x="0px" y="0px"
	 width="64px" height="64px" viewBox="0 0 64 64" enable-background="new 0 0 64 64" xml:space="preserve">
<text transform="matrix(1 0 0 1 16.3286 58.709)" font-family="'Helvetica'" font-size="11">Magic</text>
<g id="_x36_4px-Line">
	<path id="Shape" d="M14.326,42.706c0.147,0.147,0.342,0.222,0.536,0.222s0.388-0.074,0.536-0.222L42.683,15.42
		c0.296-0.296,0.296-0.775,0-1.072l-3.031-3.032c-0.296-0.296-0.775-0.296-1.072,0L11.294,38.603c-0.296,0.296-0.296,0.775,0,1.071
		L14.326,42.706L14.326,42.706z M39.115,12.925l1.96,1.96L37.6,18.36l-1.96-1.96L39.115,12.925L39.115,12.925z M34.567,17.472
		l1.96,1.96L14.862,41.098l-1.96-1.96L34.567,17.472L34.567,17.472z"/>
	<path id="Shape_9_" d="M46.694,6.547c-0.993,0-2.273-1.837-2.273-3.79C44.421,2.34,44.081,2,43.663,2s-0.758,0.34-0.758,0.758
		c0,1.952-1.281,3.79-2.274,3.79c-0.418,0-0.758,0.34-0.758,0.758c0,0.418,0.34,0.758,0.758,0.758c0.993,0,2.274,1.838,2.274,3.79
		c0,0.418,0.34,0.758,0.758,0.758s0.758-0.34,0.758-0.758c0-1.952,1.28-3.79,2.273-3.79c0.418,0,0.758-0.34,0.758-0.758
		C47.452,6.887,47.112,6.547,46.694,6.547L46.694,6.547z M43.663,8.836c-0.324-0.61-0.736-1.136-1.197-1.53
		c0.461-0.395,0.873-0.92,1.197-1.53c0.324,0.609,0.735,1.136,1.196,1.53C44.398,7.7,43.987,8.226,43.663,8.836L43.663,8.836z"/>
	<path id="Shape_6_" d="M51.242,20.19c-0.53,0-1.516-1.558-1.516-3.032c0-0.418-0.34-0.758-0.758-0.758
		c-0.419,0-0.759,0.34-0.759,0.758c0,1.474-0.985,3.032-1.516,3.032c-0.418,0-0.758,0.34-0.758,0.758
		c0,0.418,0.34,0.758,0.758,0.758c0.53,0,1.516,1.559,1.516,3.032c0,0.418,0.34,0.758,0.759,0.758c0.418,0,0.758-0.34,0.758-0.758
		c0-1.473,0.985-3.032,1.516-3.032c0.418,0,0.758-0.34,0.758-0.758C52,20.53,51.66,20.19,51.242,20.19L51.242,20.19z M48.969,21.909
		c-0.203-0.363-0.441-0.691-0.705-0.96c0.265-0.27,0.502-0.598,0.705-0.961c0.202,0.363,0.44,0.691,0.704,0.961
		C49.409,21.217,49.171,21.545,48.969,21.909L48.969,21.909z"/>
	<path id="Shape_5_" d="M28.504,14.127c0,0.418,0.34,0.758,0.758,0.758c0.418,0,0.758-0.34,0.758-0.758
		c0-1.474,0.986-3.032,1.516-3.032c0.418,0,0.758-0.34,0.758-0.758c0-0.418-0.34-0.758-0.758-0.758c-0.53,0-1.516-1.558-1.516-3.032
		c0-0.418-0.34-0.758-0.758-0.758c-0.418,0-0.758,0.34-0.758,0.758c0,1.474-0.986,3.032-1.516,3.032
		c-0.418,0-0.758,0.34-0.758,0.758c0,0.418,0.34,0.758,0.758,0.758C27.519,11.095,28.504,12.653,28.504,14.127L28.504,14.127z
		 M29.262,9.376c0.203,0.363,0.441,0.691,0.705,0.961c-0.265,0.269-0.502,0.598-0.705,0.961c-0.203-0.363-0.441-0.691-0.705-0.961
		C28.821,10.068,29.059,9.74,29.262,9.376L29.262,9.376z"/>
	<path id="Shape_2_" d="M38.357,28.527c0,0.418,0.34,0.758,0.758,0.758s0.758-0.34,0.758-0.758c0-0.869,0.58-1.516,0.758-1.516
		c0.419,0,0.758-0.339,0.758-0.758c0-0.418-0.339-0.758-0.758-0.758c-0.178,0-0.758-0.647-0.758-1.516
		c0-0.418-0.34-0.758-0.758-0.758s-0.758,0.34-0.758,0.758c0,0.869-0.58,1.516-0.758,1.516c-0.418,0-0.758,0.34-0.758,0.758
		c0,0.418,0.34,0.758,0.758,0.758C37.777,27.011,38.357,27.658,38.357,28.527L38.357,28.527z M39.115,26.178
		c0.02,0.027,0.042,0.051,0.062,0.076c-0.02,0.024-0.042,0.049-0.062,0.076c-0.02-0.027-0.041-0.051-0.062-0.076
		C39.074,26.229,39.096,26.205,39.115,26.178L39.115,26.178z"/>
</g>
</svg>
