<?xml version="1.0" encoding="utf-8"?>
<!-- Generator: Adobe Illustrator 16.0.0, SVG Export Plug-In . SVG Version: 6.00 Build 0)  -->
<!DOCTYPE svg PUBLIC "-//W3C//DTD SVG 1.1//EN" "http://www.w3.org/Graphics/SVG/1.1/DTD/svg11.dtd">
<svg version="1.1" id="Layer_1" xmlns="http://www.w3.org/2000/svg" xmlns:xlink="http://www.w3.org/1999/xlink" x="0px" y="0px"
	 width="64px" height="64px" viewBox="0 0 64 64" enable-background="new 0 0 64 64" xml:space="preserve">
<text transform="matrix(1 0 0 1 17.6377 58.709)" font-family="'Helvetica'" font-size="11">Music</text>
<g id="_x36_4px-Line_1_">
	<path id="Shape_8_" d="M53.077,23.447l-2.539-0.636v-1.737v-0.783C50.538,9.93,42.107,1.5,31.747,1.5
		c-10.361,0-18.791,8.43-18.791,18.791v0.783v1.737l-2.539,0.636c-0.349,0.086-0.593,0.4-0.593,0.759v5.48
		c0,0.359,0.244,0.673,0.593,0.759l2.539,0.635v0.171c0,1.728,1.404,3.131,3.132,3.131c1.727,0,3.132-1.403,3.132-3.131v-7.83
		c0-1.728-1.405-3.132-3.132-3.132h-1.566c0-9.498,7.727-17.225,17.225-17.225s17.226,7.728,17.226,17.225h-1.565
		c-1.728,0-3.132,1.404-3.132,3.132v7.83c0,1.728,1.404,3.131,3.132,3.131c1.727,0,3.132-1.403,3.132-3.131V31.08l2.539-0.635
		c0.348-0.086,0.593-0.4,0.593-0.759v-5.48C53.67,23.847,53.425,23.533,53.077,23.447L53.077,23.447z M11.39,29.075v-4.257
		l1.566-0.392v5.041L11.39,29.075L11.39,29.075z M16.088,21.857c0.864,0,1.566,0.702,1.566,1.566v7.83
		c0,0.864-0.702,1.565-1.566,1.565c-0.864,0-1.566-0.701-1.566-1.565v-9.396H16.088L16.088,21.857z M48.973,31.252
		c0,0.864-0.701,1.566-1.565,1.566c-0.863,0-1.566-0.702-1.566-1.566v-7.83c0-0.864,0.703-1.566,1.566-1.566h1.565V31.252
		L48.973,31.252z M52.104,29.075l-1.565,0.392v-5.041l1.565,0.392V29.075L52.104,29.075z"/>
	<path id="Shape_7_" d="M38.012,42.214c1.727,0,3.131-1.405,3.131-3.132V15.593c0-1.727-1.404-3.131-3.131-3.131H25.483
		c-1.727,0-3.132,1.404-3.132,3.131v23.489c0,1.727,1.405,3.132,3.132,3.132H38.012L38.012,42.214z M23.917,39.082V15.593
		c0-0.864,0.702-1.566,1.566-1.566H38.01c0.864,0,1.565,0.702,1.565,1.566v23.489c0,0.863-0.701,1.564-1.565,1.564H25.483
		C24.62,40.646,23.917,39.945,23.917,39.082L23.917,39.082z"/>
	<path id="Shape_1_" d="M26.266,24.989h10.96c0.434,0,0.783-0.351,0.783-0.783v-7.83c0-0.432-0.351-0.783-0.783-0.783h-10.96
		c-0.432,0-0.783,0.351-0.783,0.783v7.83C25.483,24.638,25.834,24.989,26.266,24.989L26.266,24.989z M27.049,17.159h9.395v6.264
		h-9.395V17.159L27.049,17.159z"/>
	<path id="Shape_3_" d="M31.747,39.082c3.454,0,6.265-2.811,6.265-6.264c0-3.454-2.811-6.264-6.265-6.264s-6.264,2.81-6.264,6.264
		C25.483,36.271,28.293,39.082,31.747,39.082L31.747,39.082z M31.747,28.121c2.59,0,4.696,2.107,4.696,4.697
		c0,2.592-2.106,4.697-4.696,4.697s-4.698-2.105-4.698-4.697C27.049,30.228,29.157,28.121,31.747,28.121L31.747,28.121z"/>
	<path id="Shape_4_" d="M31.747,35.95c1.728,0,3.132-1.404,3.132-3.132s-1.404-3.132-3.132-3.132c-1.728,0-3.132,1.405-3.132,3.132
		S30.02,35.95,31.747,35.95L31.747,35.95z M31.747,31.252c0.864,0,1.565,0.702,1.565,1.566c0,0.863-0.701,1.564-1.565,1.564
		s-1.566-0.701-1.566-1.564C30.181,31.954,30.883,31.252,31.747,31.252L31.747,31.252z"/>
</g>
</svg>
