<?xml version="1.0" encoding="utf-8"?>
<!-- Generator: Adobe Illustrator 16.0.0, SVG Export Plug-In . SVG Version: 6.00 Build 0)  -->
<!DOCTYPE svg PUBLIC "-//W3C//DTD SVG 1.1//EN" "http://www.w3.org/Graphics/SVG/1.1/DTD/svg11.dtd">
<svg version="1.1" id="Layer_1" xmlns="http://www.w3.org/2000/svg" xmlns:xlink="http://www.w3.org/1999/xlink" x="0px" y="0px"
	 width="64px" height="64px" viewBox="0 0 64 64" enable-background="new 0 0 64 64" xml:space="preserve">
<text transform="matrix(1 0 0 1 1.7446 58.709)" font-family="'Helvetica'" font-size="11">Perform arts</text>
<g id="_x36_4px-Line_1_">
	<path id="Shape_12_" d="M36.888,42.068c0.283,0.033,0.584,0.05,0.901,0.05c4.338,0,11.556-3.152,12.438-10.253l1.738-13.969
		c0.027-0.23-0.051-0.461-0.216-0.624c-0.154-0.154-3.865-3.767-11.21-4.633c-7.342-0.864-11.829,1.778-12.017,1.891
		c-0.198,0.119-0.329,0.322-0.357,0.55l-1.738,13.97c-0.36,2.902,0.437,5.697,2.306,8.083C31.092,40.142,34.613,41.8,36.888,42.068
		L36.888,42.068z M27.917,29.234l1.691-13.583c1.085-0.543,4.969-2.206,10.757-1.521c5.745,0.676,9.133,3.19,10.064,3.973
		L48.74,31.681c-0.816,6.551-8.14,9.314-11.676,8.897c-1.976-0.233-5.055-1.7-7.148-4.369C28.787,34.769,27.523,32.39,27.917,29.234
		L27.917,29.234z"/>
	<path id="Shape_11_" d="M33.723,32.503c-0.271-0.311-0.744-0.34-1.055-0.069c-0.312,0.272-0.345,0.746-0.072,1.059
		c0.07,0.08,1.763,1.979,5.064,2.366c0.391,0.047,0.766,0.067,1.12,0.067c2.65,0,4.297-1.132,4.374-1.186
		c0.337-0.237,0.418-0.702,0.182-1.041c-0.234-0.338-0.703-0.423-1.041-0.188c-0.018,0.012-1.755,1.175-4.459,0.858
		C35.146,34.053,33.749,32.531,33.723,32.503L33.723,32.503z"/>
	<path id="Shape_10_" d="M32.56,22.46c0.03-0.02,0.739-0.501,1.961-0.358s1.788,0.772,1.805,0.792
		c0.148,0.179,0.362,0.271,0.578,0.271c0.168,0,0.338-0.057,0.479-0.173c0.319-0.265,0.361-0.737,0.098-1.056
		c-0.094-0.113-0.968-1.11-2.783-1.324c-1.813-0.217-2.902,0.547-3.021,0.636c-0.329,0.243-0.397,0.704-0.158,1.038
		C31.756,22.62,32.222,22.697,32.56,22.46L32.56,22.46z"/>
	<path id="Shape_8_" d="M42.13,23.582c0.028-0.02,0.712-0.501,1.953-0.352c1.236,0.145,1.781,0.765,1.797,0.782
		c0.148,0.185,0.365,0.28,0.585,0.28c0.165,0,0.331-0.054,0.47-0.166c0.323-0.26,0.374-0.732,0.113-1.055
		c-0.091-0.113-0.945-1.115-2.79-1.332c-1.842-0.215-2.914,0.554-3.031,0.643c-0.325,0.249-0.386,0.708-0.142,1.039
		C41.329,23.751,41.798,23.82,42.13,23.582L42.13,23.582z"/>
	<path id="Shape_4_" d="M33.831,4.785l0.715,5.638c0.053,0.411,0.428,0.697,0.838,0.649c0.411-0.051,0.703-0.427,0.65-0.838
		L35.27,4.209C35.24,3.98,35.108,3.779,34.91,3.661C34.722,3.549,30.227,0.914,22.889,1.8C15.547,2.685,11.844,6.307,11.69,6.46
		c-0.165,0.164-0.244,0.395-0.214,0.626l1.771,13.964c0.754,5.948,5.932,9.353,10.731,10.09c0.038,0.006,0.077,0.009,0.114,0.009
		c0.363,0,0.683-0.265,0.74-0.637c0.063-0.409-0.218-0.792-0.627-0.854c-3.165-0.486-8.72-2.886-9.47-8.797L13.013,7.285
		c0.925-0.786,4.285-3.301,10.054-3.996C28.825,2.595,32.739,4.246,33.831,4.785L33.831,4.785z"/>
	<path id="Shape_3_" d="M20.956,25.59c0.208,0,0.415-0.085,0.563-0.253c0.012-0.014,1.219-1.347,3.559-1.792
		c0.407-0.079,0.674-0.47,0.596-0.877c-0.078-0.406-0.464-0.672-0.877-0.596c-2.875,0.547-4.345,2.208-4.407,2.278
		c-0.271,0.312-0.237,0.782,0.072,1.054C20.604,25.528,20.78,25.59,20.956,25.59L20.956,25.59z"/>
	<path id="Shape_1_" d="M22.375,12.585c0.246-0.334,0.173-0.803-0.16-1.048c-0.119-0.087-1.211-0.845-3.023-0.629
		c-1.812,0.219-2.686,1.217-2.779,1.331c-0.261,0.315-0.217,0.778,0.095,1.044c0.14,0.119,0.312,0.177,0.484,0.177
		c0.211,0,0.421-0.088,0.571-0.259c0.023-0.026,0.588-0.657,1.809-0.804c1.232-0.15,1.933,0.332,1.955,0.347
		C21.661,12.99,22.129,12.919,22.375,12.585L22.375,12.585z"/>
	<path id="Shape_7_" d="M26.549,12.315c0.22,0,0.438-0.096,0.585-0.28c0.006-0.007,0.562-0.64,1.796-0.789
		c1.241-0.151,1.926,0.326,1.946,0.34c0.329,0.251,0.8,0.188,1.049-0.143c0.252-0.329,0.188-0.799-0.143-1.05
		c-0.117-0.089-1.193-0.86-3.031-0.636c-1.844,0.223-2.697,1.225-2.788,1.338c-0.26,0.324-0.208,0.796,0.115,1.055
		C26.219,12.261,26.386,12.315,26.549,12.315L26.549,12.315z"/>
</g>
</svg>
