<?xml version="1.0" encoding="utf-8"?>
<!-- Generator: Adobe Illustrator 16.0.0, SVG Export Plug-In . SVG Version: 6.00 Build 0)  -->
<!DOCTYPE svg PUBLIC "-//W3C//DTD SVG 1.1//EN" "http://www.w3.org/Graphics/SVG/1.1/DTD/svg11.dtd">
<svg version="1.1" id="Layer_1" xmlns="http://www.w3.org/2000/svg" xmlns:xlink="http://www.w3.org/1999/xlink" x="0px" y="0px"
	 width="64px" height="64px" viewBox="0 0 64 64" enable-background="new 0 0 64 64" xml:space="preserve">
<text transform="matrix(1 0 0 1 0.8101 58.709)" font-family="'Helvetica'" font-size="11">Photography</text>
<g id="_x36_4px-Line">
	<path id="Shape" d="M31.701,10.818c-7.194,0-13.045,5.852-13.045,13.045c0,7.193,5.852,13.046,13.045,13.046
		c7.194,0,13.045-5.853,13.045-13.046C44.746,16.67,38.896,10.818,31.701,10.818L31.701,10.818z M31.701,35.045
		c-6.165,0-11.182-5.016-11.182-11.182c0-6.166,5.017-11.182,11.182-11.182c6.166,0,11.182,5.016,11.182,11.182
		C42.883,30.029,37.867,35.045,31.701,35.045L31.701,35.045z"/>
	<path id="Shape_6_" d="M31.701,14.545c-5.138,0-9.318,4.18-9.318,9.318c0,5.138,4.18,9.318,9.318,9.318
		c5.138,0,9.319-4.181,9.319-9.318C41.021,18.725,36.839,14.545,31.701,14.545L31.701,14.545z M31.701,31.317
		c-4.111,0-7.455-3.344-7.455-7.454s3.344-7.455,7.455-7.455c4.109,0,7.455,3.344,7.455,7.455S35.811,31.317,31.701,31.317
		L31.701,31.317z"/>
	<path id="Shape_5_" d="M54.064,8.955H46.61c-0.663,0-1.268-0.349-1.605-0.915c-0.015-0.033-0.029-0.065-0.047-0.097l-2.493-4.431
		C41.82,2.271,40.552,1.5,39.156,1.5h-14.91c-1.397,0-2.665,0.771-3.293,1.985l-2.508,4.458c-0.019,0.032-0.034,0.063-0.047,0.096
		c-0.337,0.567-0.944,0.916-1.605,0.916H9.338c-2.056,0-3.727,1.671-3.727,3.727v26.09c0,2.057,1.671,3.728,3.727,3.728h44.727
		c2.056,0,3.728-1.671,3.728-3.728v-26.09C57.792,10.625,56.12,8.955,54.064,8.955L54.064,8.955z M55.928,38.771
		c0,1.028-0.835,1.863-1.863,1.863H9.338c-1.028,0-1.863-0.835-1.863-1.863v-26.09c0-1.028,0.835-1.864,1.863-1.864h7.455
		c1.38,0,2.642-0.758,3.293-1.98c0.013-0.025,0.025-0.05,0.035-0.077l2.469-4.39c0.323-0.621,0.958-1.007,1.657-1.007h14.91
		c0.698,0,1.334,0.386,1.67,1.034l2.453,4.363c0.013,0.026,0.024,0.051,0.037,0.077c0.651,1.222,1.913,1.98,3.294,1.98h7.454
		c1.028,0,1.863,0.836,1.863,1.864V38.771L55.928,38.771z"/>
	<path id="Shape_2_" d="M10.27,5.227c-0.515,0-0.932,0.418-0.932,0.932c0,0.514,0.417,0.932,0.932,0.932h5.591
		c0.516,0,0.932-0.418,0.932-0.932c0-0.514-0.416-0.932-0.932-0.932H10.27L10.27,5.227z"/>
</g>
</svg>
