<?xml version="1.0" encoding="utf-8"?>
<!-- Generator: Adobe Illustrator 16.0.0, SVG Export Plug-In . SVG Version: 6.00 Build 0)  -->
<!DOCTYPE svg PUBLIC "-//W3C//DTD SVG 1.1//EN" "http://www.w3.org/Graphics/SVG/1.1/DTD/svg11.dtd">
<svg version="1.1" id="Layer_1" xmlns="http://www.w3.org/2000/svg" xmlns:xlink="http://www.w3.org/1999/xlink" x="0px" y="0px"
	 width="67.833px" height="64px" viewBox="0 0 67.833 64" enable-background="new 0 0 67.833 64" xml:space="preserve">
<text transform="matrix(1 0 0 1 0.5913 58.709)" font-family="'Helvetica'" font-size="11">Playing guitar</text>
<g id="_x36_4px-Line_1_">
	<path id="Shape_4_" d="M28.866,30.538c0.147,0.146,0.339,0.22,0.533,0.22c0.193,0,0.385-0.074,0.533-0.22l2.255-2.246
		c0.142-0.143,0.222-0.334,0.222-0.535c0-0.201-0.08-0.394-0.222-0.535l-4.51-4.493c-0.294-0.293-0.771-0.293-1.065,0l-2.255,2.246
		c-0.142,0.143-0.222,0.335-0.222,0.536c0,0.201,0.08,0.394,0.222,0.535L28.866,30.538L28.866,30.538z M27.143,24.33l3.44,3.427
		l-1.185,1.18l-3.44-3.426L27.143,24.33L27.143,24.33z"/>
	<path id="Shape_3_" d="M24.356,35.029c0.147,0.146,0.34,0.222,0.533,0.222c0.193,0,0.386-0.074,0.533-0.22l2.255-2.247
		c0.142-0.144,0.222-0.334,0.222-0.536c0-0.2-0.08-0.393-0.222-0.534l-4.51-4.493c-0.294-0.295-0.771-0.293-1.065,0l-2.255,2.246
		c-0.142,0.142-0.222,0.335-0.222,0.535c0,0.201,0.08,0.394,0.222,0.535L24.356,35.029L24.356,35.029z M22.633,28.822l3.44,3.426
		l-1.185,1.182l-3.44-3.428L22.633,28.822L22.633,28.822z"/>
	<path id="Shape_1_" d="M24.278,42.279c1.867,0,3.614-0.727,5.089-2.195c1.816-1.809,2.548-4.107,3.137-5.955
		c0.416-1.306,0.775-2.434,1.373-3.029c0.719-0.717,1.771-0.991,2.885-1.28c1.187-0.31,2.413-0.628,3.316-1.528
		c0.691-0.688,1.041-1.435,1.041-2.218c0-0.774-0.36-1.542-1.041-2.221c-0.526-0.523-1.255-0.833-2.098-1.192
		c-0.519-0.221-1.069-0.458-1.629-0.766l9.957-9.92l0.032,0.032c0.302,0.3,0.698,0.452,1.097,0.452c0.396,0,0.793-0.151,1.097-0.453
		l4.51-4.492c0.294-0.292,0.455-0.681,0.456-1.095s-0.161-0.803-0.456-1.097l-3.383-3.371c-0.604-0.602-1.589-0.603-2.19,0
		l-4.512,4.492c-0.295,0.293-0.455,0.682-0.455,1.097c0,0.414,0.16,0.803,0.455,1.097l0.025,0.026l-9.377,9.341
		c-0.027-0.448-0.033-0.916-0.037-1.395c-0.012-1.761-0.025-3.758-1.384-5.111l0,0c-0.65-0.647-1.332-0.9-2.027-0.758
		c-1.626,0.337-2.58,2.735-3.682,5.511c-0.685,1.724-1.393,3.506-2.122,4.232c-0.896,0.893-2.021,1.188-3.324,1.529
		c-1.734,0.457-3.699,0.973-5.696,2.963c-1.702,1.694-2.601,3.71-2.601,5.829c0,2.539,1.289,5.167,3.729,7.594
		C19.043,40.971,21.77,42.279,24.278,42.279L24.278,42.279z M48.596,3.021l3.383,3.423l-4.511,4.493
		c-0.016,0.016-0.044,0.016-0.062,0l0,0l-3.383-3.422L48.596,3.021L48.596,3.021z M44.055,9.729l1.187,1.181L35.07,21.041
		c-0.213-0.17-0.424-0.352-0.631-0.558c-0.201-0.202-0.354-0.44-0.473-0.706L44.055,9.729L44.055,9.729z M16.4,26.046
		c1.709-1.703,3.39-2.145,5.015-2.572c1.45-0.38,2.82-0.74,4.005-1.921c0.95-0.947,1.683-2.791,2.459-4.744
		c0.74-1.865,1.756-4.418,2.585-4.59c0.019-0.004,0.038-0.006,0.057-0.006c0.197,0,0.43,0.188,0.598,0.355
		c0.919,0.917,0.93,2.439,0.941,4.053c0.012,1.793,0.025,3.648,1.314,4.932c1.381,1.375,2.842,1.997,4.017,2.497
		c0.698,0.299,1.303,0.555,1.621,0.874c0.396,0.394,0.6,0.781,0.6,1.15c0,0.367-0.201,0.753-0.6,1.148
		c-0.613,0.611-1.593,0.866-2.631,1.136c-1.201,0.312-2.562,0.667-3.568,1.671c-0.859,0.856-1.271,2.146-1.747,3.64
		c-0.567,1.778-1.209,3.795-2.764,5.345c-2.844,2.834-6.872,2.203-10.773-1.685c-2.148-2.14-3.284-4.396-3.284-6.526
		C14.245,29.071,14.97,27.47,16.4,26.046L16.4,26.046z"/>
</g>
</svg>
