<?xml version="1.0" encoding="utf-8"?>
<!-- Generator: Adobe Illustrator 16.0.0, SVG Export Plug-In . SVG Version: 6.00 Build 0)  -->
<!DOCTYPE svg PUBLIC "-//W3C//DTD SVG 1.1//EN" "http://www.w3.org/Graphics/SVG/1.1/DTD/svg11.dtd">
<svg version="1.1" id="Layer_1" xmlns="http://www.w3.org/2000/svg" xmlns:xlink="http://www.w3.org/1999/xlink" x="0px" y="0px"
	 width="64px" height="64px" viewBox="0 0 64 64" enable-background="new 0 0 64 64" xml:space="preserve">
<text transform="matrix(1 0 0 1 12.2437 58.709)" font-family="'Helvetica'" font-size="11">Reading</text>
<g id="_x36_4px-Line">
	<path id="Shape" d="M16.181,42.749h29.791c0.422,0,0.764-0.342,0.764-0.764V5.319c0-0.421-0.342-0.764-0.764-0.764H14.653
		c0-0.843,0.685-1.528,1.528-1.528h32.083V38.93c0,0.422,0.341,0.764,0.764,0.764c0.422,0,0.764-0.342,0.764-0.764V2.264
		c0-0.421-0.342-0.764-0.764-0.764H16.181c-1.686,0-3.056,1.37-3.056,3.056v35.138C13.125,41.379,14.495,42.749,16.181,42.749
		L16.181,42.749z M36.041,6.083h4.584v17.253l-1.752-1.751c-0.299-0.299-0.782-0.299-1.08,0l-1.752,1.751V6.083L36.041,6.083z
		 M14.653,6.083h19.861V25.18c0,0.309,0.186,0.588,0.472,0.706c0.284,0.118,0.612,0.053,0.832-0.166l2.516-2.516l2.516,2.516
		c0.146,0.146,0.341,0.224,0.54,0.224c0.099,0,0.197-0.019,0.292-0.058c0.286-0.118,0.472-0.397,0.472-0.706V6.083h3.056v35.139
		H16.181c-0.843,0-1.528-0.685-1.528-1.528V6.083L14.653,6.083z"/>
</g>
</svg>
