<?xml version="1.0" encoding="utf-8"?>
<!-- Generator: Adobe Illustrator 16.0.0, SVG Export Plug-In . SVG Version: 6.00 Build 0)  -->
<!DOCTYPE svg PUBLIC "-//W3C//DTD SVG 1.1//EN" "http://www.w3.org/Graphics/SVG/1.1/DTD/svg11.dtd">
<svg version="1.1" id="Layer_1" xmlns="http://www.w3.org/2000/svg" xmlns:xlink="http://www.w3.org/1999/xlink" x="0px" y="0px"
	 width="64px" height="64px" viewBox="0 0 64 64" enable-background="new 0 0 64 64" xml:space="preserve">
<text transform="matrix(1 0 0 1 14.3833 58.709)" font-family="'Helvetica'" font-size="11">Singing</text>
<g id="_x36_4px-Line">
	<path id="Shape" d="M42.438,17.99c4.462-0.1,8.062-3.754,8.062-8.24c0-4.549-3.702-8.25-8.25-8.25
		c-3.313,0-6.345,2.036-7.615,5.083L13.272,24.171c-0.297,0.245-0.361,0.674-0.147,0.995l3,4.5C16.269,29.881,16.506,30,16.75,30
		c0.107,0,0.217-0.023,0.319-0.071L32.5,22.667V40.5h-6.75c-0.414,0-0.75,0.336-0.75,0.75S25.336,42,25.75,42h15
		c0.413,0,0.75-0.336,0.75-0.75s-0.337-0.75-0.75-0.75H34V21.962L42.438,17.99L42.438,17.99z M42.25,3C45.971,3,49,6.028,49,9.75
		c0,3.593-2.824,6.531-6.368,6.731l-6.514-9.512C37.203,4.586,39.611,3,42.25,3L42.25,3z M17.015,28.296l-2.266-3.398L35.103,8.141
		l6.031,8.805L17.015,28.296L17.015,28.296z"/>
	<path id="Shape_2_" d="M23.604,14.139l1.875-1.562c0.318-0.265,0.36-0.738,0.095-1.056s-0.737-0.361-1.056-0.096l-1.875,1.562
		c-0.318,0.266-0.361,0.738-0.096,1.056c0.149,0.178,0.362,0.27,0.577,0.27C23.294,14.312,23.464,14.255,23.604,14.139
		L23.604,14.139z"/>
</g>
</svg>
