<?xml version="1.0" encoding="utf-8"?>
<!-- Generator: Adobe Illustrator 16.0.0, SVG Export Plug-In . SVG Version: 6.00 Build 0)  -->
<!DOCTYPE svg PUBLIC "-//W3C//DTD SVG 1.1//EN" "http://www.w3.org/Graphics/SVG/1.1/DTD/svg11.dtd">
<svg version="1.1" id="Layer_1" xmlns="http://www.w3.org/2000/svg" xmlns:xlink="http://www.w3.org/1999/xlink" x="0px" y="0px"
	 width="64px" height="64px" viewBox="0 0 64 64" enable-background="new 0 0 64 64" xml:space="preserve">
<text transform="matrix(1 0 0 1 15.3052 58.709)" font-family="'Helvetica'" font-size="11">Surfing</text>
<g id="_x36_4px-Line">
	<path id="Shape" d="M28.749,5.484c0-2.42-1.303-3.984-3.32-3.984s-3.32,1.563-3.32,3.984s1.303,3.984,3.32,3.984
		S28.749,7.904,28.749,5.484L28.749,5.484z M23.437,5.484c0-0.799,0.194-2.656,1.992-2.656c1.798,0,1.992,1.857,1.992,2.656
		S27.227,8.14,25.429,8.14C23.631,8.14,23.437,6.283,23.437,5.484L23.437,5.484z"/>
	<path id="Shape_2_" d="M44.685,12.456c0-0.915-0.744-1.66-1.66-1.66h-1.025c-1.33-5.049-3.339-7.968-4.618-7.968
		s-3.289,2.919-4.618,7.968h-7.334c-3.036,0-6.303,0.303-6.639,3.944l-0.665,11.327c0,1.099,0.894,1.992,1.992,1.992
		c0.233,0,0.455-0.048,0.664-0.122v12.737c0,1.469,0.857,1.992,1.66,1.992s1.66-0.523,1.659-1.959l0.665-13.312
		c0-0.366,0.298-0.664,0.664-0.664c0.367,0,0.664,0.298,0.665,0.697l0.664,13.247c0,1.469,0.857,1.992,1.66,1.992
		s1.659-0.523,1.659-1.992V14.749l1.888-0.092c-0.348,2.223-0.56,4.709-0.56,7.427c0,11.923,2.581,19.8,2.69,20.129
		c0.091,0.271,0.345,0.454,0.63,0.454h5.312c0.287,0,0.54-0.183,0.63-0.454c0.109-0.329,2.69-8.207,2.69-20.129
		c0-2.933-0.244-5.6-0.643-7.953l0.311-0.015C43.94,14.116,44.685,13.371,44.685,12.456L44.685,12.456z M29.38,13.452
		c-0.354,0.018-0.632,0.31-0.632,0.664v26.559c0,0.664-0.216,0.664-0.332,0.664c-0.116,0-0.332,0-0.333-0.697l-0.663-13.246
		c0-1.099-0.894-1.992-1.992-1.992c-1.098,0-1.992,0.894-1.991,1.959l-0.665,13.312c0,0.664-0.216,0.664-0.332,0.664
		s-0.332,0-0.332-0.664V16.771c0-0.366-0.296-0.664-0.664-0.664c-0.367,0-0.664,0.298-0.664,0.664v9.296
		c0,0.366-0.297,0.664-0.664,0.664c-0.367,0-0.664-0.298-0.666-0.625l0.663-11.266c0.187-2.031,1.528-2.717,5.314-2.717h7.014
		c-0.087,0.388-0.17,0.784-0.248,1.192L29.38,13.452L29.38,13.452z M39.546,41.339h-4.329c-0.543-1.844-2.483-9.146-2.483-19.255
		c0-11.786,3.757-17.481,4.647-17.914c0.891,0.434,4.648,6.128,4.648,17.914C42.028,32.191,40.088,39.496,39.546,41.339
		L39.546,41.339z M42.466,12.814c-0.048-0.234-0.097-0.464-0.146-0.691h0.705c0.183,0,0.332,0.149,0.332,0.332
		s-0.149,0.332-0.364,0.333L42.466,12.814L42.466,12.814z"/>
</g>
</svg>
