<?xml version="1.0" encoding="utf-8"?>
<!-- Generator: Adobe Illustrator 16.0.0, SVG Export Plug-In . SVG Version: 6.00 Build 0)  -->
<!DOCTYPE svg PUBLIC "-//W3C//DTD SVG 1.1//EN" "http://www.w3.org/Graphics/SVG/1.1/DTD/svg11.dtd">
<svg version="1.1" id="Layer_1" xmlns="http://www.w3.org/2000/svg" xmlns:xlink="http://www.w3.org/1999/xlink" x="0px" y="0px"
	 width="64px" height="64px" viewBox="0 0 64 64" enable-background="new 0 0 64 64" xml:space="preserve">
<text transform="matrix(1 0 0 1 7.4712 58.709)" font-family="'Helvetica'" font-size="11">Swimming</text>
<g id="_x36_4px-Line_1_">
	<path id="Shape_4_" d="M41.698,22.331c0.624,0.405,1.284,0.611,1.946,0.611c0.231,0,0.462-0.025,0.691-0.076
		c1.107-0.248,2.116-1.057,2.919-2.342c1.475-2.362,1.189-4.609-0.741-5.862c-0.842-0.547-1.754-0.73-2.638-0.536
		c-1.107,0.246-2.116,1.055-2.919,2.342C39.482,18.831,39.767,21.077,41.698,22.331L41.698,22.331z M42.215,17.252
		c0.578-0.928,1.283-1.524,1.983-1.68c0.126-0.027,0.251-0.042,0.377-0.042c0.373,0,0.747,0.124,1.131,0.375
		c1.725,1.12,0.778,3.054,0.291,3.834c-0.578,0.927-1.282,1.523-1.982,1.68c-0.502,0.111-0.996,0.003-1.511-0.331
		C40.781,19.969,41.728,18.032,42.215,17.252L42.215,17.252z"/>
	<path id="Shape_3_" d="M35.965,17.12l-6.501-3.901c-1.539-0.923-3.059-0.848-4.636,0.226l-6.864,4.569
		c-0.561,0.331-0.91,0.942-0.91,1.594c0,1.022,0.831,1.853,1.853,1.853c0.371,0,0.729-0.109,0.985-0.285l6.294-3.544
		c0.948-0.523,1.096-0.479,1.938-0.03l2.674,1.605l-12.713,7.627c-0.352,0.21-0.465,0.666-0.254,1.017
		c0.139,0.231,0.385,0.36,0.636,0.36c0.13,0,0.262-0.035,0.381-0.107l13.772-8.261c0.224-0.135,0.359-0.375,0.359-0.636
		c0-0.26-0.137-0.501-0.359-0.635l-3.764-2.258c-1.35-0.723-2.046-0.719-3.392,0.025l-6.35,3.578
		c-0.043,0.029-0.113,0.063-0.208,0.063c-0.204,0-0.371-0.167-0.371-0.371c0-0.132,0.068-0.252,0.215-0.339l6.903-4.594
		c1.117-0.759,1.999-0.813,3.045-0.184l6.5,3.9c2.559,1.536,3.595,5.356,3.92,6.927c0.083,0.401,0.476,0.653,0.877,0.575
		c0.401-0.083,0.659-0.477,0.575-0.876C40.118,22.827,38.915,18.891,35.965,17.12L35.965,17.12z"/>
	<path id="Shape_1_" d="M52.253,30.45c-0.222-0.125-5.497-3.06-12.224-3.06c-3.4,0-5.886,0.764-8.291,1.504
		c-2.439,0.751-4.744,1.46-8.014,1.46c-6.439,0-11.438-2.837-11.488-2.866c-0.355-0.203-0.808-0.081-1.013,0.272
		c-0.204,0.354-0.083,0.808,0.271,1.012c0.216,0.125,5.377,3.064,12.229,3.064c3.493,0,6.013-0.776,8.449-1.526
		c2.406-0.739,4.679-1.438,7.855-1.438c6.323,0,11.443,2.84,11.494,2.869c0.355,0.199,0.809,0.076,1.01-0.282
		C52.734,31.103,52.608,30.651,52.253,30.45L52.253,30.45z"/>
</g>
</svg>
