<?xml version="1.0" encoding="utf-8"?>
<!-- Generator: Adobe Illustrator 16.0.0, SVG Export Plug-In . SVG Version: 6.00 Build 0)  -->
<!DOCTYPE svg PUBLIC "-//W3C//DTD SVG 1.1//EN" "http://www.w3.org/Graphics/SVG/1.1/DTD/svg11.dtd">
<svg version="1.1" id="Layer_1" xmlns="http://www.w3.org/2000/svg" xmlns:xlink="http://www.w3.org/1999/xlink" x="0px" y="0px"
	 width="64px" height="64px" viewBox="0 0 64 64" enable-background="new 0 0 64 64" xml:space="preserve">
<text transform="matrix(1 0 0 1 3.2915 58.709)" font-family="'Helvetica'" font-size="11">Table tennis</text>
<g id="_x36_4px-Line">
	<path id="Shape" d="M13.775,38.409c0.422,0.421,0.977,0.634,1.532,0.634c0.555,0,1.11-0.211,1.532-0.634l6.049-6.049
		c0.879-0.879,1.959-0.537,3.951,0.193c1.498,0.548,3.321,1.219,5.503,1.217c0.394,0,0.799-0.024,1.216-0.071
		c0.005,0,0.008,0.002,0.011,0.002c0.021,0,0.039-0.01,0.059-0.012c2.652-0.324,5.778-1.716,9.425-5.361
		c6.404-6.404,6.857-16.373,1.009-22.221c-5.848-5.848-15.817-5.396-22.221,1.008c-3.648,3.649-5.041,6.776-5.363,9.43
		c-0.001,0.022-0.009,0.042-0.008,0.063c-0.314,2.729,0.497,4.954,1.145,6.72c0.73,1.992,1.069,3.073,0.195,3.949l-6.051,6.052
		c-0.844,0.846-0.844,2.219,0,3.064L13.775,38.409L13.775,38.409z M24.837,30.411l2.571-2.569l4.446,4.446
		c-1.685-0.097-3.159-0.635-4.504-1.127C26.486,30.844,25.643,30.537,24.837,30.411L24.837,30.411z M22.889,8.162
		c5.825-5.826,14.854-6.279,20.125-1.009c5.271,5.271,4.817,14.298-1.009,20.125c-3.202,3.202-5.868,4.531-8.16,4.907l-5.914-5.913
		v-0.001c-0.001,0-0.001,0-0.001,0l-4.032-4.032c0,0,0,0,0-0.002c0,0-0.001,0-0.001,0l-5.914-5.914
		C18.358,14.03,19.686,11.365,22.889,8.162L22.889,8.162z M19.007,22.818c-0.493-1.346-1.029-2.819-1.127-4.503l4.447,4.445
		l-2.57,2.57C19.631,24.524,19.324,23.683,19.007,22.818L19.007,22.818z M12.807,34.376L23.373,23.81l2.985,2.984L15.792,37.359
		c-0.265,0.268-0.702,0.268-0.969,0.002l-2.016-2.017C12.541,35.078,12.541,34.644,12.807,34.376L12.807,34.376z"/>
	<path id="Shape_2_" d="M46.695,30.151c-3.269,0-5.928,2.659-5.928,5.928c0,3.27,2.659,5.929,5.928,5.929s5.929-2.659,5.929-5.929
		C52.624,32.811,49.964,30.151,46.695,30.151L46.695,30.151z M46.695,40.525c-2.452,0-4.446-1.995-4.446-4.446
		s1.994-4.446,4.446-4.446s4.447,1.995,4.447,4.446S49.147,40.525,46.695,40.525L46.695,40.525z"/>
</g>
</svg>
