<?xml version="1.0" encoding="utf-8"?>
<!-- Generator: Adobe Illustrator 16.0.0, SVG Export Plug-In . SVG Version: 6.00 Build 0)  -->
<!DOCTYPE svg PUBLIC "-//W3C//DTD SVG 1.1//EN" "http://www.w3.org/Graphics/SVG/1.1/DTD/svg11.dtd">
<svg version="1.1" id="Layer_1" xmlns="http://www.w3.org/2000/svg" xmlns:xlink="http://www.w3.org/1999/xlink" x="0px" y="0px"
	 width="64px" height="64px" viewBox="0 0 64 64" enable-background="new 0 0 64 64" xml:space="preserve">
<text transform="matrix(1 0 0 1 4.3706 58.709)" font-family="'Helvetica'" font-size="11">Watching tv</text>
<g id="_x36_4px-Line_1_">
	<path id="Shape_6_" d="M48.813,12.173H33.883l9.371-9.372c0.297-0.298,0.297-0.78,0-1.078c-0.299-0.298-0.781-0.298-1.078,0
		L32.042,11.857L21.908,1.724c-0.298-0.298-0.78-0.298-1.078,0c-0.298,0.298-0.298,0.78,0,1.078l9.371,9.372H15.271
		c-2.102,0-3.812,1.709-3.812,3.812v22.87c0,2.103,1.71,3.812,3.812,3.812h33.543c2.102,0,3.812-1.709,3.812-3.812v-22.87
		C52.625,13.883,50.915,12.173,48.813,12.173L48.813,12.173z M51.101,38.854c0,1.262-1.026,2.287-2.287,2.287H15.271
		c-1.261,0-2.287-1.025-2.287-2.287v-22.87c0-1.261,1.026-2.287,2.287-2.287h33.543c1.261,0,2.287,1.026,2.287,2.287V38.854
		L51.101,38.854z"/>
	<path id="Shape_1_" d="M41.19,15.222H16.795c-1.261,0-2.287,1.026-2.287,2.287V37.33c0,1.261,1.026,2.287,2.287,2.287H41.19
		c1.26,0,2.286-1.026,2.286-2.287V17.509C43.477,16.249,42.45,15.222,41.19,15.222L41.19,15.222z M41.953,37.33
		c0,0.421-0.343,0.762-0.763,0.762H16.795c-0.421,0-0.762-0.341-0.762-0.762V17.509c0-0.42,0.341-0.762,0.762-0.762H41.19
		c0.42,0,0.763,0.342,0.763,0.762V37.33L41.953,37.33z"/>
	<path id="Shape_2_" d="M47.288,16.747c-1.261,0-2.287,1.026-2.287,2.287s1.026,2.287,2.287,2.287c1.262,0,2.287-1.026,2.287-2.287
		S48.55,16.747,47.288,16.747L47.288,16.747z M47.288,19.796c-0.42,0-0.762-0.341-0.762-0.762c0-0.42,0.342-0.762,0.762-0.762
		c0.421,0,0.763,0.342,0.763,0.762C48.051,19.455,47.709,19.796,47.288,19.796L47.288,19.796z"/>
	<path id="Shape_3_" d="M47.288,22.846c-1.261,0-2.287,1.026-2.287,2.287s1.026,2.287,2.287,2.287c1.262,0,2.287-1.026,2.287-2.287
		S48.55,22.846,47.288,22.846L47.288,22.846z M47.288,25.895c-0.42,0-0.762-0.341-0.762-0.762c0-0.42,0.342-0.762,0.762-0.762
		c0.421,0,0.763,0.341,0.763,0.762C48.051,25.554,47.709,25.895,47.288,25.895L47.288,25.895z"/>
	<path id="Shape_4_" d="M47.288,28.944c-1.261,0-2.287,1.026-2.287,2.287c0,1.261,1.026,2.286,2.287,2.286
		c1.262,0,2.287-1.025,2.287-2.286C49.575,29.97,48.55,28.944,47.288,28.944L47.288,28.944z M47.288,31.994
		c-0.42,0-0.762-0.341-0.762-0.762c0-0.42,0.342-0.763,0.762-0.763c0.421,0,0.763,0.343,0.763,0.763
		C48.051,31.653,47.709,31.994,47.288,31.994L47.288,31.994z"/>
	<path id="Shape_5_" d="M19.844,18.272c-1.261,0-2.287,1.026-2.287,2.287v12.197c0,0.421,0.341,0.762,0.762,0.762
		c0.422,0,0.763-0.341,0.763-0.762V20.559c0-0.421,0.342-0.763,0.762-0.763c0.422,0,0.762-0.341,0.762-0.762
		S20.266,18.272,19.844,18.272L19.844,18.272z"/>
</g>
</svg>
